<svg width="1000" height="300" viewBox="0 0 1000 300" fill="none" xmlns="http://www.w3.org/2000/svg">
<path d="M355.019 222.818C344.169 222.818 335.028 221.035 327.604 217.457C320.173 213.885 314.489 208.761 310.552 202.078C306.608 195.395 304.381 187.422 303.87 178.165C303.742 175.522 303.675 172.511 303.675 169.132C303.675 165.759 303.736 162.817 303.87 160.298C304.387 150.904 306.712 142.9 310.844 136.285C314.976 129.671 320.757 124.578 328.182 121C335.606 117.428 344.552 115.639 355.019 115.639C365.609 115.639 374.621 117.428 382.046 121C389.47 124.572 395.252 129.671 399.384 136.285C403.516 142.906 405.841 150.91 406.358 160.298C406.486 162.811 406.553 165.759 406.553 169.132C406.553 172.504 406.486 175.515 406.358 178.165C405.841 187.428 403.613 195.401 399.676 202.078C395.733 208.761 390.055 213.885 382.624 217.457C375.2 221.029 365.998 222.818 355.019 222.818ZM355.019 198.599C360.831 198.599 365.061 196.81 367.708 193.238C370.355 189.666 371.877 184.305 372.26 177.161C372.388 175.179 372.455 172.529 372.455 169.225C372.455 165.921 372.388 163.272 372.26 161.29C371.871 154.276 370.355 148.953 367.708 145.312C365.061 141.672 360.831 139.851 355.019 139.851C349.335 139.851 345.136 141.672 342.422 145.312C339.708 148.953 338.223 154.276 337.968 161.29C337.84 163.272 337.773 165.921 337.773 169.225C337.773 172.536 337.84 175.179 337.968 177.161C338.223 184.305 339.714 189.666 342.422 193.238C345.142 196.817 349.335 198.599 355.019 198.599Z" fill="#1B7118"/>
<path d="M430.389 220.83C428.965 220.83 427.803 220.368 426.902 219.439C425.995 218.517 425.545 217.326 425.545 215.867V122.583C425.545 121.131 425.995 119.94 426.902 119.011C427.803 118.089 428.965 117.621 430.389 117.621H451.506C452.924 117.621 454.087 118.089 454.993 119.011C455.894 119.94 456.351 121.131 456.351 122.583V129.335C458.931 125.763 462.552 122.621 467.201 119.909C471.851 117.197 477.34 115.776 483.669 115.639C498.524 115.377 508.73 121.131 514.28 132.907C517.25 127.882 521.516 123.743 527.066 120.501C532.616 117.26 538.689 115.639 545.28 115.639C551.999 115.639 558.036 117.197 563.397 120.302C568.759 123.412 573.049 128.175 576.28 134.59C579.506 141.011 581.125 149.308 581.125 159.5V215.867C581.125 217.326 580.644 218.517 579.67 219.439C578.703 220.368 577.571 220.83 576.28 220.83H553.806C552.382 220.83 551.189 220.368 550.222 219.439C549.254 218.517 548.767 217.326 548.767 215.867V160.891C548.767 156.259 548.116 152.587 546.832 149.875C545.542 147.164 543.795 145.212 541.598 144.022C539.401 142.831 536.882 142.233 534.04 142.233C531.715 142.233 529.421 142.831 527.163 144.022C524.899 145.212 523.092 147.164 521.741 149.875C520.384 152.587 519.708 156.259 519.708 160.891V215.867C519.708 217.326 519.252 218.517 518.351 219.439C517.444 220.368 516.282 220.83 514.864 220.83H492.39C490.966 220.83 489.803 220.368 488.903 219.439C487.996 218.517 487.546 217.326 487.546 215.867V160.891C487.546 156.259 486.834 152.587 485.416 149.875C483.992 147.164 482.184 145.212 479.993 144.022C477.796 142.831 475.344 142.233 472.63 142.233C470.305 142.233 468.011 142.831 465.753 144.022C463.489 145.212 461.682 147.164 460.324 149.875C458.967 152.587 458.292 156.196 458.292 160.691V215.867C458.292 217.326 457.805 218.517 456.837 219.439C455.87 220.368 454.671 220.83 453.253 220.83H430.389Z" fill="#1B7118"/>
<path d="M633.053 222.818C626.079 222.818 619.848 221.459 614.358 218.747C608.869 216.036 604.506 212.364 601.28 207.732C598.049 203.1 596.436 197.876 596.436 192.054C596.436 182.659 600.179 175.216 607.676 169.724C615.168 164.238 625.112 160.498 637.514 158.509L661.735 154.738V151.957C661.735 147.195 660.767 143.554 658.826 141.042C656.891 138.53 653.331 137.27 648.17 137.27C644.549 137.27 641.61 138 639.352 139.452C637.088 140.911 635.311 142.893 634.021 145.406C632.859 147.126 631.24 147.986 629.177 147.986H607.475C606.051 147.986 604.956 147.556 604.183 146.696C603.41 145.836 603.082 144.813 603.215 143.623C603.215 141.241 604.086 138.498 605.832 135.388C607.573 132.283 610.256 129.204 613.871 126.162C617.486 123.119 622.136 120.601 627.82 118.619C633.504 116.636 640.35 115.639 648.359 115.639C656.751 115.639 663.926 116.63 669.866 118.619C675.805 120.601 680.619 123.381 684.301 126.953C687.982 130.525 690.727 134.727 692.535 139.558C694.342 144.389 695.249 149.713 695.249 155.536V215.874C695.249 217.332 694.762 218.523 693.794 219.446C692.827 220.374 691.695 220.836 690.405 220.836H667.93C666.506 220.836 665.344 220.374 664.443 219.446C663.536 218.523 663.086 217.332 663.086 215.874V208.929C661.406 211.441 659.143 213.76 656.307 215.874C653.465 217.993 650.136 219.676 646.326 220.935C642.517 222.189 638.092 222.818 633.053 222.818ZM642.164 200.189C645.906 200.189 649.302 199.366 652.333 197.708C655.363 196.056 657.755 193.475 659.502 189.966C661.242 186.462 662.118 182.061 662.118 176.768V173.988L645.651 176.968C639.577 178.028 635.153 179.648 632.378 181.83C629.597 184.012 628.209 186.562 628.209 189.473C628.209 191.723 628.854 193.637 630.151 195.227C631.441 196.817 633.12 198.038 635.189 198.899C637.252 199.759 639.577 200.189 642.164 200.189Z" fill="#1B7118"/>
<path d="M776.049 222.818C764.425 222.818 754.25 220.867 745.529 216.965C736.809 213.062 730.06 207.04 725.282 198.905C720.505 190.77 718.114 180.415 718.114 167.841V86.8631C718.114 85.4106 718.564 84.2199 719.471 83.2911C720.371 82.3685 721.534 81.9009 722.958 81.9009H747.952C749.369 81.9009 750.532 82.3685 751.439 83.2911C752.339 84.2199 752.796 85.4106 752.796 86.8631V167.642C752.796 176.245 754.828 182.697 758.9 186.992C762.971 191.293 768.685 193.444 776.049 193.444C783.279 193.444 788.932 191.293 793.004 186.992C797.075 182.697 799.107 176.245 799.107 167.642V86.8569C799.107 85.4044 799.594 84.2137 800.562 83.2848C801.53 82.3622 802.662 81.8947 803.952 81.8947H829.14C830.43 81.8947 831.562 82.3622 832.53 83.2848C833.498 84.2137 833.984 85.4044 833.984 86.8569V167.835C833.984 180.409 831.593 190.757 826.816 198.899C822.038 207.034 815.32 213.056 806.666 216.958C798.006 220.861 787.8 222.818 776.049 222.818Z" fill="#B80000"/>
<path d="M851.997 220.83C850.962 220.83 850.025 220.399 849.185 219.539C848.346 218.679 847.926 217.725 847.926 216.659C847.926 215.998 847.993 215.406 848.12 214.876L893.653 87.4553C894.043 86.0028 894.846 84.7124 896.075 83.5841C897.305 82.462 899.015 81.8947 901.212 81.8947H929.887C932.084 81.8947 933.794 82.4557 935.024 83.5841C936.253 84.7124 937.056 86.0028 937.446 87.4553L982.784 214.876C983.04 215.406 983.173 216.004 983.173 216.659C983.173 217.719 982.753 218.679 981.914 219.539C981.074 220.399 980.076 220.83 978.913 220.83H955.082C953.147 220.83 951.692 220.331 950.725 219.34C949.757 218.348 949.142 217.457 948.881 216.659L941.322 196.418H889.588L882.225 216.659C881.963 217.451 881.385 218.348 880.478 219.34C879.571 220.331 878.025 220.83 875.829 220.83H851.997ZM897.53 167.835H933.569L915.355 115.439L897.53 167.835Z" fill="#B80000"/>
<path d="M125.838 216.678C124.421 215.231 123.721 213.474 123.721 211.404V9.50045C123.721 7.22508 124.427 5.36736 125.838 3.91487C127.25 2.4686 128.967 1.74548 130.987 1.74548H209.407C233.828 1.74548 253.108 7.53676 267.239 19.1131C281.364 30.6957 288.435 47.5459 288.435 69.67C288.435 84.9742 284.747 97.6914 277.383 107.815C270.014 117.952 260.173 125.289 247.862 129.833L292.068 208.923C292.671 210.163 292.975 211.304 292.975 212.333C292.975 214.197 292.318 215.743 291.009 216.983C289.695 218.224 288.234 218.841 286.622 218.841H259.072C255.639 218.841 253.017 217.912 251.197 216.048C249.383 214.19 247.965 212.326 246.961 210.463L207.904 136.959H165.821C165.803 136.971 127.244 218.124 125.838 216.678ZM165.803 101.924H208.494C220.805 101.924 229.988 99.0878 236.044 93.3962C242.099 87.7109 245.13 79.7003 245.13 69.3583C245.13 59.0225 242.148 50.906 236.196 45.0149C230.238 39.1239 221.006 36.1753 208.494 36.1753H165.803V101.924V101.924Z" fill="#1B7118"/>
<path d="M110.436 0C171.427 0 220.873 50.6504 220.873 113.127C220.873 175.603 171.427 226.253 110.436 226.253C49.4459 226.253 0 175.603 0 113.127C0 50.6504 49.4459 0 110.436 0Z" fill="#B80000"/>
<path d="M12.9559 93.2653C14.1853 86.9441 20.1796 82.8422 26.3444 84.1015C32.5152 85.3607 36.5196 91.5011 35.2903 97.8223C34.061 104.143 28.0666 108.245 21.8958 106.986C15.7371 105.727 11.7266 99.5865 12.9559 93.2653Z" fill="white"/>
<path d="M75.2361 105.958C75.6803 103.657 77.859 102.167 80.1046 102.622C82.3502 103.077 83.8047 105.315 83.3604 107.61C82.9162 109.91 80.7314 111.4 78.4919 110.945C76.2463 110.49 74.7918 108.252 75.2361 105.958Z" fill="white"/>
<path d="M22.6196 107.229L78.7537 111.001L79.1919 104.231L23.7029 90.298L22.6196 107.229Z" fill="white"/>
<path d="M27.1047 84.1514L80.3725 102.672L78.2425 109.099L21.7798 100.222L27.1047 84.1514Z" fill="white"/>
<path d="M27.794 56.5601C31.2872 51.2052 38.3587 49.7652 43.5924 53.3434C48.82 56.9217 50.2258 64.1655 46.7326 69.5266C43.2394 74.8815 36.1679 76.3278 30.9342 72.7433C25.7067 69.1651 24.3009 61.9213 27.794 56.5601Z" fill="white"/>
<path d="M80.5991 92.7043C81.871 90.7531 84.4392 90.2294 86.344 91.5323C88.2488 92.8352 88.7539 95.4721 87.4881 97.4171C86.2162 99.3683 83.6481 99.892 81.7432 98.5891C79.8384 97.2862 79.3272 94.6492 80.5991 92.7043Z" fill="white"/>
<path d="M31.5112 73.2545L81.9613 98.7449L84.8946 92.6544L38.8384 58.0376L31.5112 73.2545Z" fill="white"/>
<path d="M44.2734 53.6863L86.5687 91.6819L82.1992 96.7875L33.3496 66.4471L44.2734 53.6863Z" fill="white"/>
<path d="M55.2207 28.4702C60.4483 24.8919 67.5198 26.332 71.0191 31.6869C74.5123 37.0418 73.1065 44.2918 67.8789 47.8701C62.6513 51.4483 55.5798 50.0083 52.0805 44.6534C48.5813 39.2985 49.9871 32.0547 55.2207 28.4702Z" fill="white"/>
<path d="M90.5006 82.5555C92.4054 81.2526 94.9735 81.7762 96.2454 83.7274C97.5173 85.6787 97.0061 88.3094 95.1013 89.6122C93.1965 90.9151 90.6284 90.3915 89.3565 88.4403C88.0846 86.4953 88.5958 83.8584 90.5006 82.5555Z" fill="white"/>
<path d="M52.4146 45.3516L89.5005 88.6771L94.4847 84.2012L64.8658 34.1617L52.4146 45.3516Z" fill="white"/>
<path d="M71.5128 32.2791L96.3971 83.9581L90.4514 86.9628L56.6577 39.7847L71.5128 32.2791Z" fill="white"/>
<path d="M91.0476 13.272C97.2185 12.0127 103.213 16.1209 104.442 22.4358C105.671 28.757 101.661 34.8974 95.4962 36.1566C89.3254 37.4158 83.331 33.3077 82.1017 26.9928C80.8724 20.6716 84.8768 14.525 91.0476 13.272Z" fill="white"/>
<path d="M103.438 77.0697C105.684 76.6146 107.862 78.1045 108.307 80.4048C108.751 82.7051 107.296 84.9368 105.051 85.3919C102.805 85.847 100.627 84.3571 100.182 82.0568C99.7381 79.7565 101.193 77.5247 103.438 77.0697Z" fill="white"/>
<path d="M82.1509 27.7658L100.231 82.3311L106.506 80.1492L97.8397 22.3111L82.1509 27.7658Z" fill="white"/>
<path d="M104.687 23.1714L108.362 80.6728L101.753 81.1154L88.1519 24.281L104.687 23.1714Z" fill="white"/>
<path d="M129.832 13.272C136.003 14.5312 140.007 20.6716 138.778 26.9928C137.549 33.314 131.554 37.4158 125.384 36.1566C119.213 34.8974 115.208 28.757 116.438 22.4358C117.667 16.1146 123.661 12.0127 129.832 13.272Z" fill="white"/>
<path d="M117.441 77.0696C119.687 77.5247 121.141 79.7627 120.697 82.0568C120.253 84.3571 118.068 85.847 115.828 85.3919C113.583 84.9368 112.128 82.6989 112.573 80.4048C113.017 78.1045 115.195 76.6083 117.441 77.0696Z" fill="white"/>
<path d="M116.193 23.1714L112.517 80.6728L119.126 81.1154L132.721 24.281L116.193 23.1714Z" fill="white"/>
<path d="M138.729 27.7658L120.642 82.3311L114.368 80.1492L123.04 22.3111L138.729 27.7658Z" fill="white"/>
<path d="M165.658 28.4702C170.885 32.0485 172.291 39.2922 168.798 44.6534C165.305 50.0145 158.233 51.4483 153 47.8701C147.772 44.2918 146.366 37.048 149.859 31.6869C153.359 26.332 160.43 24.8919 165.658 28.4702Z" fill="white"/>
<path d="M130.379 82.5555C132.284 83.8584 132.789 86.4891 131.523 88.4403C130.252 90.3915 127.683 90.9151 125.779 89.6122C123.874 88.3094 123.369 85.6787 124.635 83.7274C125.906 81.7825 128.481 81.2588 130.379 82.5555Z" fill="white"/>
<path d="M149.361 32.2791L124.482 83.9581L130.422 86.9628L164.222 39.7847L149.361 32.2791Z" fill="white"/>
<path d="M168.462 45.3516L131.37 88.6771L126.392 84.2012L156.01 34.1617L168.462 45.3516Z" fill="white"/>
<path d="M193.08 56.5601C196.573 61.915 195.168 69.1651 189.94 72.7433C184.712 76.3216 177.641 74.8815 174.142 69.5266C170.649 64.1717 172.054 56.9279 177.282 53.3434C182.516 49.7652 189.587 51.2052 193.08 56.5601Z" fill="white"/>
<path d="M140.281 92.7043C141.553 94.6555 141.042 97.2862 139.137 98.5891C137.232 99.892 134.664 99.3683 133.392 97.4171C132.12 95.4659 132.631 92.8352 134.536 91.5323C136.441 90.2294 139.009 90.7531 140.281 92.7043Z" fill="white"/>
<path d="M176.604 53.6863L134.309 91.6819L138.679 96.7875L187.522 66.4471L176.604 53.6863Z" fill="white"/>
<path d="M189.367 73.2545L138.917 98.7449L135.984 92.6544L182.04 58.0376L189.367 73.2545Z" fill="white"/>
<path d="M207.923 93.2653C209.153 99.5865 205.142 105.727 198.977 106.986C192.807 108.245 186.812 104.137 185.583 97.8223C184.354 91.5011 188.364 85.3607 194.529 84.1015C200.694 82.8422 206.694 86.9441 207.923 93.2653Z" fill="white"/>
<path d="M145.641 105.958C146.085 108.258 144.63 110.49 142.385 110.945C140.139 111.4 137.961 109.91 137.516 107.61C137.072 105.309 138.527 103.077 140.772 102.622C143.012 102.167 145.196 103.657 145.641 105.958Z" fill="white"/>
<path d="M193.773 84.1514L140.505 102.672L142.635 109.099L199.098 100.222L193.773 84.1514Z" fill="white"/>
<path d="M198.253 107.229L142.119 111.001L141.687 104.231L197.17 90.298L198.253 107.229Z" fill="white"/>
<path d="M207.921 132.994C206.692 139.315 200.697 143.417 194.527 142.158C188.356 140.899 184.351 134.758 185.581 128.437C186.81 122.116 192.804 118.014 198.975 119.273C205.14 120.532 209.15 126.673 207.921 132.994Z" fill="white"/>
<path d="M145.641 120.302C145.196 122.602 143.012 124.092 140.772 123.637C138.527 123.182 137.072 120.944 137.516 118.65C137.961 116.349 140.145 114.86 142.385 115.315C144.63 115.77 146.085 118.001 145.641 120.302Z" fill="white"/>
<path d="M198.253 119.024L142.119 115.252L141.687 122.028L197.17 135.955L198.253 119.024Z" fill="white"/>
<path d="M193.773 142.108L140.505 123.581L142.635 117.154L199.098 126.037L193.773 142.108Z" fill="white"/>
<path d="M193.08 169.693C189.587 175.048 182.516 176.494 177.282 172.91C172.054 169.331 170.649 162.088 174.142 156.726C177.635 151.371 184.706 149.925 189.94 153.51C195.168 157.094 196.573 164.338 193.08 169.693Z" fill="white"/>
<path d="M140.281 133.555C139.009 135.506 136.441 136.03 134.536 134.727C132.631 133.424 132.12 130.787 133.392 128.842C134.664 126.891 137.238 126.367 139.137 127.67C141.042 128.973 141.553 131.604 140.281 133.555Z" fill="white"/>
<path d="M189.367 152.999L138.917 127.514L135.984 133.599L182.04 168.222L189.367 152.999Z" fill="white"/>
<path d="M176.604 172.567L134.309 134.571L138.679 129.472L187.522 159.806L176.604 172.567Z" fill="white"/>
<path d="M165.658 197.783C160.43 201.361 153.353 199.921 149.859 194.566C146.366 189.211 147.772 181.961 153 178.383C158.227 174.805 165.299 176.245 168.798 181.6C172.297 186.955 170.892 194.205 165.658 197.783Z" fill="white"/>
<path d="M130.38 143.698C128.475 145 125.907 144.477 124.635 142.526C123.363 140.574 123.874 137.944 125.779 136.641C127.684 135.338 130.252 135.862 131.524 137.813C132.796 139.764 132.284 142.395 130.38 143.698Z" fill="white"/>
<path d="M168.462 180.908L131.37 137.582L126.392 142.058L156.01 192.091L168.462 180.908Z" fill="white"/>
<path d="M149.361 193.98L124.482 142.301L130.422 139.296L164.222 186.475L149.361 193.98Z" fill="white"/>
<path d="M129.832 212.987C123.661 214.247 117.667 210.138 116.437 203.823C115.208 197.502 119.219 191.362 125.383 190.103C131.554 188.843 137.549 192.952 138.778 199.266C140.007 205.588 135.997 211.728 129.832 212.987Z" fill="white"/>
<path d="M117.441 149.19C115.195 149.645 113.017 148.155 112.573 145.854C112.128 143.554 113.583 141.322 115.828 140.867C118.074 140.412 120.253 141.902 120.697 144.202C121.141 146.497 119.687 148.728 117.441 149.19Z" fill="white"/>
<path d="M138.729 198.493L120.642 143.928L114.368 146.11L123.04 203.948L138.729 198.493Z" fill="white"/>
<path d="M116.193 203.082L112.517 145.58L119.126 145.138L132.721 201.972L116.193 203.082Z" fill="white"/>
<path d="M91.0476 212.987C84.8768 211.728 80.8724 205.588 82.1017 199.266C83.331 192.945 89.3254 188.843 95.4962 190.103C101.667 191.362 105.671 197.502 104.442 203.823C103.213 210.138 97.2185 214.24 91.0476 212.987Z" fill="white"/>
<path d="M103.438 149.19C101.193 148.735 99.7381 146.497 100.182 144.202C100.627 141.902 102.811 140.412 105.051 140.867C107.296 141.322 108.751 143.56 108.307 145.854C107.862 148.155 105.678 149.645 103.438 149.19Z" fill="white"/>
<path d="M104.687 203.082L108.362 145.58L101.753 145.138L88.1519 201.972L104.687 203.082Z" fill="white"/>
<path d="M82.1509 198.493L100.231 143.928L106.506 146.11L97.8397 203.948L82.1509 198.493Z" fill="white"/>
<path d="M55.2216 197.783C49.994 194.205 48.5821 186.961 52.0814 181.6C55.5806 176.238 62.6461 174.798 67.8797 178.383C73.1073 181.961 74.5131 189.205 71.0199 194.566C67.5207 199.921 60.4492 201.361 55.2216 197.783Z" fill="white"/>
<path d="M90.5006 143.698C88.5958 142.395 88.0846 139.764 89.3565 137.813C90.6284 135.862 93.1965 135.338 95.1013 136.641C97.0061 137.944 97.5112 140.574 96.2454 142.526C94.9735 144.477 92.3993 145 90.5006 143.698Z" fill="white"/>
<path d="M71.5128 193.98L96.3971 142.301L90.4514 139.296L56.6577 186.475L71.5128 193.98Z" fill="white"/>
<path d="M52.4146 180.908L89.5005 137.582L94.4847 142.058L64.8658 192.091L52.4146 180.908Z" fill="white"/>
<path d="M27.794 169.693C24.3009 164.338 25.7067 157.094 30.9342 153.51C36.1618 149.931 43.2333 151.371 46.7326 156.726C50.2258 162.081 48.82 169.325 43.5924 172.91C38.3648 176.494 31.2933 175.048 27.794 169.693Z" fill="white"/>
<path d="M80.5991 133.555C79.3272 131.604 79.8384 128.973 81.7432 127.67C83.6481 126.367 86.2162 126.891 87.4881 128.842C88.76 130.793 88.2488 133.424 86.344 134.727C84.4392 136.024 81.865 135.5 80.5991 133.555Z" fill="white"/>
<path d="M44.2734 172.567L86.5687 134.571L82.1992 129.472L33.3496 159.806L44.2734 172.567Z" fill="white"/>
<path d="M31.5112 152.999L81.9613 127.514L84.8946 133.599L38.8384 168.222L31.5112 152.999Z" fill="white"/>
<path d="M12.9559 132.994C11.7266 126.673 15.7371 120.532 21.9019 119.279C28.0727 118.02 34.0671 122.128 35.2964 128.443C36.5257 134.764 32.5152 140.905 26.3505 142.164C20.1796 143.417 14.1852 139.309 12.9559 132.994Z" fill="white"/>
<path d="M75.2361 120.302C74.7918 118.001 76.2463 115.77 78.4919 115.315C80.7375 114.86 82.9162 116.349 83.3604 118.65C83.8047 120.95 82.3502 123.182 80.1046 123.637C77.859 124.092 75.6803 122.602 75.2361 120.302Z" fill="white"/>
<path d="M27.1047 142.108L80.3725 123.581L78.2425 117.154L21.7798 126.037L27.1047 142.108Z" fill="white"/>
<path d="M22.6196 119.024L78.7537 115.252L79.1919 122.028L23.7029 135.955L22.6196 119.024Z" fill="white"/>
<path d="M19.6688 249.618H15.7983V289.278H19.6688V249.618Z" fill="#1B7118"/>
<path d="M48.2765 275.145H31.614V289.271H27.9321V259.941H31.614V271.586H48.2765V259.941H51.9583V289.271H48.2765V275.145Z" fill="#1B7118"/>
<path d="M83.386 248.62H87.0678V264.373C89.3682 261.026 92.6727 259.349 96.9874 259.349C101.144 259.349 104.631 260.795 107.449 263.688C110.266 266.58 111.672 270.295 111.672 274.821C111.672 279.297 110.248 282.969 107.406 285.849C104.564 288.723 101.126 290.163 97.0909 290.163C92.6666 290.163 89.3256 288.399 87.0617 284.87V300H83.3799V284.87C81.1526 288.417 77.7811 290.188 73.2717 290.188C69.3038 290.188 65.8958 288.748 63.0477 285.874C60.1997 283 58.7695 279.316 58.7695 274.821C58.7695 270.289 60.1753 266.58 62.993 263.688C65.8106 260.795 69.2977 259.349 73.4542 259.349C77.8602 259.349 81.1647 261.026 83.3738 264.373V248.62H83.386ZM62.5183 274.634C62.5183 277.907 63.5468 280.706 65.6037 283.044C67.6607 285.382 70.4175 286.547 73.868 286.547C75.0608 286.547 76.3388 286.236 77.7081 285.618C79.0774 285.001 80.1728 284.216 81.0065 283.274C81.8403 282.333 82.4671 281.236 82.887 279.995C83.3069 278.755 83.5199 276.941 83.5199 274.547C83.5199 270.738 82.5584 267.821 80.6292 265.801C78.7001 263.781 76.3692 262.771 73.6368 262.771C70.5696 262.771 67.9528 263.893 65.7802 266.144C63.6015 268.388 62.5183 271.218 62.5183 274.634ZM86.9644 275.308C86.9644 278.811 87.9381 281.56 89.8794 283.555C91.8268 285.55 94.0603 286.547 96.5858 286.547C100.018 286.547 102.769 285.382 104.838 283.044C106.907 280.706 107.942 277.895 107.942 274.603C107.942 271.206 106.852 268.388 104.668 266.137C102.483 263.893 99.8721 262.765 96.8231 262.765C94.0724 262.765 91.7416 263.769 89.8307 265.77C87.9198 267.783 86.9644 270.963 86.9644 275.308Z" fill="#1B7118"/>
<path d="M132.047 259.187C136.459 259.187 140.117 260.82 143.014 264.093C145.649 267.079 146.969 270.607 146.969 274.69C146.969 278.786 145.576 282.371 142.788 285.431C140.001 288.498 136.423 290.026 132.047 290.026C127.653 290.026 124.063 288.492 121.276 285.431C118.488 282.364 117.095 278.786 117.095 274.69C117.095 270.626 118.415 267.104 121.05 264.124C123.953 260.832 127.623 259.187 132.047 259.187ZM132.035 262.883C128.974 262.883 126.339 264.043 124.136 266.362C121.933 268.681 120.837 271.486 120.837 274.771C120.837 276.891 121.336 278.867 122.341 280.706C123.345 282.539 124.702 283.954 126.406 284.951C128.116 285.949 129.99 286.448 132.029 286.448C134.068 286.448 135.948 285.949 137.652 284.951C139.362 283.954 140.713 282.539 141.717 280.706C142.721 278.873 143.22 276.897 143.22 274.771C143.22 271.48 142.113 268.681 139.904 266.362C137.713 264.043 135.084 262.883 132.035 262.883Z" fill="#1B7118"/>
<path d="M153.84 259.941H157.522V265.333C158.977 263.282 160.65 261.749 162.543 260.726C164.435 259.704 166.547 259.187 168.878 259.187C172.943 259.187 176.424 260.689 179.315 263.688C182.206 266.692 183.654 270.302 183.654 274.528C183.654 278.842 182.218 282.501 179.357 285.512C176.491 288.523 173.035 290.026 168.988 290.026C166.712 290.026 164.612 289.54 162.701 288.567C160.79 287.595 159.062 286.148 157.522 284.228V300H153.84V259.941ZM168.58 262.827C165.391 262.827 162.713 263.968 160.528 266.25C158.35 268.531 157.26 271.368 157.26 274.759C157.26 276.984 157.747 278.986 158.715 280.762C159.689 282.539 161.076 283.948 162.89 284.989C164.703 286.03 166.614 286.553 168.628 286.553C170.606 286.553 172.469 286.03 174.209 284.976C175.95 283.929 177.337 282.458 178.372 280.575C179.406 278.693 179.917 276.716 179.917 274.653C179.917 272.571 179.406 270.595 178.384 268.731C177.361 266.867 175.98 265.414 174.246 264.38C172.517 263.345 170.631 262.827 168.58 262.827Z" fill="#1B7118"/>
<path d="M221.657 259.941H222.71L232.435 289.271H228.589L221.493 267.696L210.478 289.271H209.79L198.751 267.665L191.679 289.271H187.839L197.625 259.941H198.623L210.162 282.888L221.657 259.941Z" fill="#1B7118"/>
<path d="M266.454 259.941V289.271H262.82V284.228C261.275 286.155 259.546 287.601 257.623 288.567C255.7 289.54 253.601 290.026 251.318 290.026C247.265 290.026 243.803 288.523 240.936 285.512C238.07 282.501 236.634 278.842 236.634 274.528C236.634 270.302 238.082 266.692 240.979 263.688C243.876 260.683 247.357 259.187 251.428 259.187C253.777 259.187 255.907 259.698 257.812 260.726C259.717 261.749 261.384 263.289 262.826 265.333V259.941H266.454ZM251.732 262.827C249.681 262.827 247.789 263.345 246.054 264.373C244.32 265.408 242.939 266.854 241.916 268.725C240.894 270.588 240.376 272.565 240.376 274.647C240.376 276.71 240.894 278.686 241.928 280.569C242.963 282.452 244.35 283.923 246.097 284.97C247.844 286.024 249.712 286.547 251.708 286.547C253.722 286.547 255.633 286.03 257.441 284.983C259.248 283.941 260.636 282.533 261.609 280.756C262.583 278.979 263.07 276.978 263.07 274.753C263.07 271.361 261.981 268.525 259.796 266.243C257.605 263.968 254.921 262.827 251.732 262.827Z" fill="#1B7118"/>
<path d="M301.514 289.271H274.749V259.941H278.431V285.718H295.093V259.941H298.775V285.718H304.989V293.909H301.514V289.271Z" fill="#1B7118"/>
<path d="M311.214 247.866C312.053 247.866 312.765 248.171 313.362 248.782C313.958 249.393 314.25 250.129 314.25 250.989C314.25 251.837 313.952 252.56 313.362 253.171C312.765 253.782 312.053 254.087 311.214 254.087C310.392 254.087 309.686 253.782 309.09 253.171C308.493 252.56 308.201 251.831 308.201 250.989C308.201 250.129 308.499 249.387 309.09 248.782C309.68 248.171 310.392 247.866 311.214 247.866ZM309.382 259.941H313.064V289.271H309.382V259.941Z" fill="#1B7118"/>
<path d="M324.409 259.941V281.641L345.435 259.941H345.727V289.271H342.045V267.777L321.177 289.278H320.733V259.947H324.409V259.941ZM323.885 248.159H327.36C327.957 249.094 328.754 249.792 329.758 250.26C330.756 250.727 331.949 250.964 333.336 250.964C334.742 250.964 335.874 250.758 336.732 250.347C337.59 249.936 338.406 249.206 339.179 248.165H342.55C342.16 249.78 341.175 251.139 339.586 252.223C337.998 253.308 335.904 253.857 333.312 253.857C330.732 253.857 328.626 253.321 326.995 252.255C325.358 251.176 324.323 249.817 323.885 248.159Z" fill="#1B7118"/>
<path d="M374.285 275.145H357.623V289.271H353.941V259.941H357.623V271.586H374.285V259.941H377.967V289.271H374.285V275.145Z" fill="#1B7118"/>
<path d="M399.731 259.187C404.143 259.187 407.8 260.82 410.697 264.093C413.332 267.079 414.653 270.607 414.653 274.69C414.653 278.786 413.259 282.371 410.472 285.431C407.685 288.498 404.106 290.026 399.731 290.026C395.337 290.026 391.746 288.492 388.959 285.431C386.172 282.364 384.778 278.786 384.778 274.69C384.778 270.626 386.099 267.104 388.734 264.124C391.637 260.832 395.307 259.187 399.731 259.187ZM399.719 262.883C396.658 262.883 394.022 264.043 391.819 266.362C389.616 268.681 388.521 271.486 388.521 274.771C388.521 276.891 389.026 278.867 390.024 280.706C391.028 282.539 392.385 283.954 394.089 284.951C395.799 285.949 397.674 286.448 399.713 286.448C401.751 286.448 403.632 285.949 405.336 284.951C407.046 283.954 408.397 282.539 409.401 280.706C410.405 278.873 410.904 276.897 410.904 274.771C410.904 271.48 409.796 268.681 407.587 266.362C405.397 264.043 402.768 262.883 399.719 262.883Z" fill="#1B7118"/>
<path d="M433.555 272.72H419.078V276.012H433.555V272.72Z" fill="#1B7118"/>
<path d="M467.896 259.941V289.271H464.263V284.228C462.717 286.155 460.989 287.601 459.066 288.567C457.143 289.54 455.043 290.026 452.761 290.026C448.708 290.026 445.246 288.523 442.379 285.512C439.513 282.501 438.077 278.842 438.077 274.528C438.077 270.302 439.525 266.692 442.422 263.688C445.319 260.683 448.8 259.187 452.871 259.187C455.22 259.187 457.35 259.698 459.255 260.726C461.16 261.749 462.827 263.289 464.269 265.333V259.941H467.896ZM453.175 262.827C451.124 262.827 449.232 263.345 447.497 264.373C445.763 265.408 444.381 266.854 443.359 268.725C442.337 270.588 441.819 272.565 441.819 274.647C441.819 276.71 442.337 278.686 443.371 280.569C444.406 282.452 445.793 283.923 447.54 284.97C449.286 286.024 451.155 286.547 453.151 286.547C455.165 286.547 457.076 286.03 458.884 284.983C460.691 283.941 462.078 282.533 463.052 280.756C464.026 278.979 464.513 276.978 464.513 274.753C464.513 271.361 463.423 268.525 461.239 266.243C459.048 263.968 456.364 262.827 453.175 262.827Z" fill="#1B7118"/>
<path d="M496.534 275.145H479.871V289.271H476.189V259.941H479.871V271.586H496.534V259.941H500.216V289.271H496.534V275.145Z" fill="#1B7118"/>
<path d="M536.956 259.941V289.271H533.323V284.228C531.778 286.155 530.049 287.601 528.126 288.567C526.203 289.54 524.104 290.026 521.821 290.026C517.768 290.026 514.306 288.523 511.439 285.512C508.573 282.501 507.137 278.842 507.137 274.528C507.137 270.302 508.585 266.692 511.482 263.688C514.379 260.683 517.86 259.187 521.931 259.187C524.28 259.187 526.41 259.698 528.315 260.726C530.22 261.749 531.887 263.289 533.329 265.333V259.941H536.956ZM522.235 262.827C520.184 262.827 518.292 263.345 516.557 264.373C514.823 265.408 513.441 266.854 512.419 268.725C511.397 270.588 510.879 272.565 510.879 274.647C510.879 276.71 511.397 278.686 512.431 280.569C513.466 282.452 514.853 283.923 516.6 284.97C518.346 286.024 520.215 286.547 522.211 286.547C524.225 286.547 526.136 286.03 527.944 284.983C529.751 283.941 531.139 282.533 532.112 280.756C533.086 278.979 533.573 276.978 533.573 274.753C533.573 271.361 532.483 268.525 530.299 266.243C528.108 263.968 525.424 262.827 522.235 262.827Z" fill="#1B7118"/>
<path d="M569.495 289.271H565.57L555.985 267.914L546.479 289.271H542.53L555.663 259.941H556.32L569.495 289.271Z" fill="#1B7118"/>
<path d="M576.397 247.866C577.236 247.866 577.955 248.171 578.545 248.782C579.141 249.393 579.433 250.129 579.433 250.989C579.433 251.837 579.135 252.56 578.545 253.171C577.949 253.782 577.236 254.087 576.397 254.087C575.575 254.087 574.869 253.782 574.273 253.171C573.676 252.56 573.384 251.831 573.384 250.989C573.384 250.129 573.682 249.387 574.273 248.782C574.863 248.171 575.575 247.866 576.397 247.866ZM574.565 259.941H578.253V289.271H574.565V259.941Z" fill="#1B7118"/>
<path d="M582.701 259.941H601.542V263.201H593.959V289.271H590.277V263.201H582.701V259.941Z" fill="#1B7118"/>
<path d="M610.228 259.941V281.641L631.26 259.941H631.546V289.271H627.864V267.777L606.99 289.271H606.546V259.941H610.228Z" fill="#1B7118"/>
<path d="M652.546 276.037H646.083C643.155 276.037 640.989 275.264 639.583 273.718C638.171 272.172 637.471 270.027 637.471 267.272V259.941H641.074V265.252C641.074 268.668 641.549 270.782 642.492 271.605C643.435 272.421 644.993 272.833 647.166 272.833H652.552V259.947H656.233V289.278H652.552V276.037H652.546Z" fill="#1B7118"/>
<path d="M684.788 275.145H668.126V289.271H664.444V259.941H668.126V271.586H684.788V259.941H688.47V289.271H684.788V275.145Z" fill="#1B7118"/>
<path d="M720.791 279.54L723.895 281.211C722.879 283.262 721.698 284.914 720.365 286.173C719.033 287.432 717.529 288.386 715.862 289.047C714.195 289.702 712.308 290.032 710.196 290.032C705.522 290.032 701.871 288.461 699.236 285.325C696.601 282.19 695.286 278.643 695.286 274.69C695.286 270.969 696.4 267.652 698.633 264.741C701.463 261.038 705.243 259.187 709.989 259.187C714.87 259.187 718.771 261.082 721.686 264.878C723.761 267.553 724.814 270.9 724.844 274.909H699.078C699.151 278.319 700.21 281.111 702.267 283.287C704.324 285.463 706.861 286.553 709.88 286.553C711.34 286.553 712.758 286.292 714.134 285.774C715.515 285.257 716.684 284.565 717.651 283.705C718.619 282.844 719.666 281.46 720.791 279.54ZM720.791 271.642C720.298 269.628 719.586 268.02 718.643 266.817C717.7 265.614 716.458 264.641 714.913 263.906C713.367 263.17 711.742 262.802 710.038 262.802C707.226 262.802 704.81 263.731 702.79 265.576C701.317 266.923 700.197 268.949 699.443 271.642H720.791V271.642Z" fill="#1B7118"/>
<path d="M775.167 259.941V289.271H771.534V284.228C769.988 286.155 768.26 287.601 766.337 288.567C764.414 289.54 762.314 290.026 760.032 290.026C755.979 290.026 752.516 288.523 749.65 285.512C746.784 282.501 745.347 278.842 745.347 274.528C745.347 270.302 746.796 266.692 749.693 263.688C752.589 260.683 756.07 259.187 760.142 259.187C762.491 259.187 764.621 259.698 766.526 260.726C768.43 261.749 770.098 263.289 771.54 265.333V259.941H775.167ZM760.44 262.827C758.389 262.827 756.496 263.345 754.762 264.373C753.027 265.408 751.646 266.854 750.624 268.725C749.601 270.588 749.084 272.565 749.084 274.647C749.084 276.71 749.601 278.686 750.636 280.569C751.67 282.452 753.058 283.923 754.805 284.97C756.551 286.024 758.419 286.547 760.416 286.547C762.43 286.547 764.341 286.03 766.148 284.983C767.956 283.941 769.343 282.533 770.317 280.756C771.291 278.979 771.777 276.978 771.777 274.753C771.777 271.361 770.688 268.525 768.503 266.243C766.313 263.968 763.629 262.827 760.44 262.827Z" fill="#1B7118"/>
<path d="M787.137 263.257V289.271H783.456V259.941H797.927V263.257H787.137Z" fill="#1B7118"/>
<path d="M827.01 279.54L830.114 281.211C829.097 283.262 827.917 284.914 826.584 286.173C825.251 287.432 823.748 288.386 822.08 289.047C820.413 289.702 818.526 290.032 816.415 290.032C811.741 290.032 808.09 288.461 805.454 285.325C802.819 282.19 801.505 278.643 801.505 274.69C801.505 270.969 802.619 267.652 804.852 264.741C807.682 261.038 811.461 259.187 816.208 259.187C821.088 259.187 824.989 261.082 827.904 264.878C829.98 267.553 831.032 270.9 831.063 274.909H805.296C805.369 278.319 806.428 281.111 808.485 283.287C810.542 285.463 813.08 286.553 816.098 286.553C817.559 286.553 818.977 286.292 820.352 285.774C821.734 285.257 822.902 284.565 823.87 283.705C824.843 282.844 825.89 281.46 827.01 279.54ZM827.01 271.642C826.517 269.628 825.805 268.02 824.862 266.817C823.918 265.614 822.677 264.641 821.131 263.906C819.585 263.17 817.96 262.802 816.257 262.802C813.445 262.802 811.029 263.731 809.008 265.576C807.536 266.923 806.416 268.949 805.661 271.642H827.01V271.642Z" fill="#1B7118"/>
<path d="M858.277 275.145H841.621V289.271H837.933V259.941H841.621V271.586H858.277V259.941H861.965V289.271H858.277V275.145Z" fill="#1B7118"/>
<path d="M866.961 259.941H885.809V263.201H878.226V289.271H874.544V263.201H866.961V259.941Z" fill="#1B7118"/>
<path d="M918.598 266.038L915.677 267.895C913.152 264.467 909.707 262.746 905.35 262.746C901.863 262.746 898.966 263.893 896.66 266.194C894.353 268.494 893.203 271.28 893.203 274.572C893.203 276.71 893.732 278.717 894.791 280.6C895.85 282.489 897.305 283.948 899.155 284.989C901.005 286.03 903.074 286.547 905.374 286.547C909.579 286.547 913.012 284.833 915.677 281.398L918.598 283.368C917.229 285.481 915.391 287.115 913.085 288.28C910.778 289.446 908.149 290.026 905.204 290.026C900.676 290.026 896.921 288.555 893.939 285.606C890.957 282.657 889.466 279.073 889.466 274.852C889.466 272.01 890.166 269.373 891.56 266.942C892.953 264.504 894.87 262.603 897.311 261.238C899.751 259.872 902.477 259.187 905.496 259.187C907.389 259.187 909.22 259.486 910.985 260.078C912.75 260.67 914.247 261.443 915.476 262.397C916.694 263.351 917.74 264.56 918.598 266.038Z" fill="#1B7118"/>
<path d="M922.469 259.941H941.31V263.201H933.734V289.271H930.046V263.201H922.469V259.941Z" fill="#1B7118"/>
<path d="M954.634 289.271H946.314V259.941H954.5C957.622 259.941 959.873 260.677 961.249 262.148C962.624 263.619 963.318 265.346 963.318 267.316C963.318 270.295 962.04 272.315 959.478 273.375C963.196 274.722 965.058 277.327 965.058 281.174C965.052 286.578 961.577 289.271 954.634 289.271ZM949.996 263.208V272.346H952.4C954.579 272.346 956.009 272.259 956.678 272.078C957.348 271.898 957.975 271.455 958.565 270.751C959.155 270.04 959.447 269.105 959.447 267.939C959.447 266.723 959.137 265.701 958.522 264.878C957.908 264.055 957.263 263.569 956.581 263.426C955.905 263.282 954.512 263.214 952.4 263.214H949.996V263.208ZM949.996 275.819V286.092H953.952C955.814 286.092 957.147 285.967 957.95 285.731C958.754 285.487 959.435 284.964 960.007 284.153C960.579 283.343 960.865 282.321 960.865 281.08C960.865 279.478 960.372 278.206 959.386 277.253C958.401 276.299 957.098 275.825 955.479 275.825H949.996V275.819Z" fill="#1B7118"/>
<path d="M985.078 259.187C989.49 259.187 993.148 260.82 996.044 264.093C998.679 267.079 1000 270.607 1000 274.69C1000 278.786 998.606 282.371 995.819 285.431C993.032 288.498 989.454 290.026 985.078 290.026C980.684 290.026 977.094 288.492 974.306 285.431C971.519 282.364 970.125 278.786 970.125 274.69C970.125 270.626 971.446 267.104 974.081 264.124C976.984 260.832 980.648 259.187 985.078 259.187ZM985.066 262.883C982.005 262.883 979.37 264.043 977.167 266.362C974.964 268.681 973.868 271.486 973.868 274.771C973.868 276.891 974.367 278.867 975.371 280.706C976.375 282.539 977.733 283.954 979.437 284.951C981.147 285.949 983.021 286.448 985.06 286.448C987.098 286.448 988.979 285.949 990.683 284.951C992.393 283.954 993.744 282.539 994.748 280.706C995.752 278.873 996.251 276.897 996.251 274.771C996.251 271.48 995.15 268.681 992.935 266.362C990.738 264.043 988.115 262.883 985.066 262.883Z" fill="#1B7118"/>
</svg>
