<?xml version="1.0" encoding="iso-8859-1"?><!DOCTYPE svg PUBLIC "-//W3C//DTD SVG 1.1//EN" "http://www.w3.org/Graphics/SVG/1.1/DTD/svg11.dtd"><svg viewBox="0 0 1000 512" xmlns="http://www.w3.org/2000/svg" xmlns:xlink="http://www.w3.org/1999/xlink"><style>:root>svg{display:none}:root>svg:target{display:block}</style><svg viewBox="0 0 512 512" id="icon-arrow" xmlns="http://www.w3.org/2000/svg"><path d="M506.134 241.843l-.018-.019-104.504-104c-7.829-7.791-20.492-7.762-28.285.068-7.792 7.829-7.762 20.492.067 28.284L443.558 236H20c-11.046 0-20 8.954-20 20s8.954 20 20 20h423.557l-70.162 69.824c-7.829 7.792-7.859 20.455-.067 28.284 7.793 7.831 20.457 7.858 28.285.068l104.504-104 .018-.019c7.833-7.818 7.808-20.522-.001-28.314z"/></svg><svg fill="none" viewBox="0 0 200 180" id="icon-book" xmlns="http://www.w3.org/2000/svg"><path d="M195.648 19.393h-8.95v132.691s-12.033 3.962-40.461-5.722c-19.167-6.529-33.506 1.348-40.814 7.174-1.555 1.239-3.402 3.287-5.303 3.287h-.238c-1.902 0-3.75-2.048-5.304-3.287-7.308-5.825-21.647-13.703-40.814-7.174-28.428 9.684-40.46 5.722-40.46 5.722V19.393h-8.95C1.948 19.393 0 21.596 0 24.313V162.66c0 2.718 1.95 4.92 4.353 4.92h78.2c2.308 0 4.451 1.46 5.437 3.817C90.116 176.481 94.694 180 100 180s9.884-3.519 12.01-8.604c.986-2.358 3.13-3.817 5.437-3.817h78.2c2.404 0 4.353-2.202 4.353-4.92V24.313c.001-2.717-1.948-4.92-4.352-4.92z" fill="#88C293"/><path d="M22.267 162.658v-9.786c-6.14.141-8.963-.788-8.963-.788V19.393h-8.95C1.948 19.393 0 21.596 0 24.313V162.66c0 2.718 1.949 4.92 4.353 4.92H26.62c-2.404 0-4.353-2.203-4.353-4.921z" fill="#88C293"/><path d="M184.016 8.803c-5.799.526-18.179.336-37.78-6.34C117.809-7.223 100 14.786 100 14.786l-3.102 4.606v132.546l3.102 4.705v.18h.118c1.903 0 3.75-.684 5.304-1.923 7.309-5.826 21.647-13.703 40.814-7.174 28.428 9.684 41.668 5.723 41.668 5.723V12.868c0-2.378-1.79-4.255-3.888-4.065z" fill="#B7E4C7"/><path d="M111.807 5.35C104.212 9.583 100 14.787 100 14.787l-3.102 4.606v132.546l3.102 4.705v.18h.118c1.903 0 3.75-.684 5.304-1.923a46.987 46.987 0 016.385-4.283V5.35z" fill="#88C293"/><path d="M15.984 8.803c5.8.526 18.18.336 37.78-6.34C82.192-7.223 100 14.786 100 14.786v142.037h-.118c-1.902 0-3.75-.684-5.304-1.923-7.309-5.826-21.647-13.703-40.814-7.174-28.428 9.684-41.668 5.722-41.668 5.722V12.869c0-2.38 1.79-4.256 3.888-4.066z" fill="#B7E4C7"/></svg><svg viewBox="0 0 21 21" id="icon-checkbox"><path d="M5 10.75l3.5 3.5L19.4 2.3C18.833 1.433 18.033 1 17 1H4C2.35 1 1 2.35 1 4v13c0 1.65 1.35 3 3 3h13c1.65 0 3-1.35 3-3V7.998"/></svg><svg viewBox="0 0 357 357" id="icon-close" xmlns="http://www.w3.org/2000/svg"><path d="M357 35.7L321.3 0 178.5 142.8 35.7 0 0 35.7l142.8 142.8L0 321.3 35.7 357l142.8-142.8L321.3 357l35.7-35.7-142.8-142.8z"/></svg><svg viewBox="0 0 511.072 511.072" id="icon-comment" xmlns="http://www.w3.org/2000/svg"><path d="M74.39 480.536H38.177l25.607-25.607c13.807-13.807 22.429-31.765 24.747-51.246-36.029-23.644-62.375-54.751-76.478-90.425C-2.04 277.611-3.811 238.37 6.932 199.776c12.89-46.309 43.123-88.518 85.128-118.853 45.646-32.963 102.47-50.387 164.33-50.387 77.927 0 143.611 22.389 189.948 64.745 41.744 38.159 64.734 89.63 64.734 144.933 0 26.868-5.471 53.011-16.26 77.703-11.165 25.551-27.514 48.302-48.593 67.619-46.399 42.523-112.042 65-189.83 65-28.877 0-59.01-3.855-85.913-10.929-25.465 26.123-59.972 40.929-96.086 40.929zm182-420c-124.039 0-200.15 73.973-220.557 147.285-19.284 69.28 9.143 134.743 76.043 175.115l7.475 4.511-.23 8.727c-.456 17.274-4.574 33.912-11.945 48.952 17.949-6.073 34.236-17.083 46.99-32.151l6.342-7.493 9.405 2.813c26.393 7.894 57.104 12.241 86.477 12.241 154.372 0 224.682-93.473 224.682-180.322 0-46.776-19.524-90.384-54.976-122.79-40.713-37.216-99.397-56.888-169.706-56.888z"/></svg><svg fill="none" viewBox="0 0 161 200" id="icon-document" xmlns="http://www.w3.org/2000/svg"><path d="M160 200H0V0h106.667L160 53.846V200z" fill="#B7E4C7"/><path d="M106.668 53.846h53.333L106.668 0v53.846zM30.475 169.231h-7.619c-2.103 0-3.81-1.722-3.81-3.846s1.707-3.846 3.81-3.846h7.62c2.103 0 3.809 1.722 3.809 3.846s-1.706 3.846-3.81 3.846zM137.14 169.231H45.712c-2.104 0-3.81-1.722-3.81-3.846s1.706-3.846 3.81-3.846h91.428c2.104 0 3.81 1.722 3.81 3.846s-1.706 3.846-3.81 3.846zM30.475 146.154h-7.619c-2.103 0-3.81-1.722-3.81-3.846s1.707-3.846 3.81-3.846h7.62c2.103 0 3.809 1.722 3.809 3.846s-1.706 3.846-3.81 3.846zM137.14 146.154H45.712c-2.104 0-3.81-1.722-3.81-3.846s1.706-3.846 3.81-3.846h91.428c2.104 0 3.81 1.722 3.81 3.846s-1.706 3.846-3.81 3.846zM30.475 123.077h-7.619c-2.103 0-3.81-1.722-3.81-3.846s1.707-3.846 3.81-3.846h7.62c2.103 0 3.809 1.722 3.809 3.846s-1.706 3.846-3.81 3.846zM137.14 123.077H45.712c-2.104 0-3.81-1.722-3.81-3.846s1.706-3.846 3.81-3.846h91.428c2.104 0 3.81 1.722 3.81 3.846s-1.706 3.846-3.81 3.846zM30.475 100h-7.619c-2.103 0-3.81-1.722-3.81-3.846s1.707-3.846 3.81-3.846h7.62c2.103 0 3.809 1.722 3.809 3.846S32.579 100 30.475 100zM137.14 100H45.712c-2.104 0-3.81-1.722-3.81-3.846s1.706-3.846 3.81-3.846h91.428c2.104 0 3.81 1.722 3.81 3.846S139.244 100 137.14 100zM30.475 76.924h-7.619c-2.103 0-3.81-1.722-3.81-3.846s1.707-3.846 3.81-3.846h7.62c2.103 0 3.809 1.722 3.809 3.846s-1.706 3.846-3.81 3.846zM137.14 76.923H45.712c-2.104 0-3.81-1.722-3.81-3.846s1.706-3.846 3.81-3.846h91.428c2.104 0 3.81 1.722 3.81 3.846s-1.706 3.846-3.81 3.846z" fill="#88C293"/></svg><svg viewBox="0 0 292.362 292.362" id="icon-down" xmlns="http://www.w3.org/2000/svg"><path d="M286.935 69.377c-3.614-3.617-7.898-5.424-12.848-5.424H18.274c-4.952 0-9.233 1.807-12.85 5.424C1.807 72.998 0 77.279 0 82.228c0 4.948 1.807 9.229 5.424 12.847l127.907 127.907c3.621 3.617 7.902 5.428 12.85 5.428s9.233-1.811 12.847-5.428L286.935 95.074c3.613-3.617 5.427-7.898 5.427-12.847 0-4.948-1.814-9.229-5.427-12.85z"/></svg><svg fill="none" viewBox="0 0 25 25" id="icon-download" xmlns="http://www.w3.org/2000/svg"><path d="M13.457 19.828l3.355-3.062c.252-.23.25-.6-.002-.829a.692.692 0 00-.912.002l-2.253 2.056V5.585c0-.323-.289-.585-.645-.585-.356 0-.645.262-.645.586v12.409l-2.253-2.056a.692.692 0 00-.912-.002.549.549 0 00-.002.829l3.355 3.062c.253.23.662.229.914 0z" fill="#000"/><rect x="1" y="1" width="23" height="23" rx="3" stroke="#B80000" stroke-width="2"/></svg><svg viewBox="0 0 451.847 451.847" id="icon-dropdown" xmlns="http://www.w3.org/2000/svg"><path d="M225.923 354.706c-8.098 0-16.195-3.092-22.369-9.263L9.27 151.157c-12.359-12.359-12.359-32.397 0-44.751 12.354-12.354 32.388-12.354 44.748 0l171.905 171.915 171.906-171.909c12.359-12.354 32.391-12.354 44.744 0 12.365 12.354 12.365 32.392 0 44.751L248.292 345.449c-6.177 6.172-14.274 9.257-22.369 9.257z"/></svg><svg viewBox="0 0 511.999 511.999" id="icon-eye" xmlns="http://www.w3.org/2000/svg"><path d="M508.745 246.041c-4.574-6.257-113.557-153.206-252.748-153.206S7.818 239.784 3.249 246.035a16.896 16.896 0 000 19.923c4.569 6.257 113.557 153.206 252.748 153.206s248.174-146.95 252.748-153.201a16.875 16.875 0 000-19.922zM255.997 385.406c-102.529 0-191.33-97.533-217.617-129.418 26.253-31.913 114.868-129.395 217.617-129.395 102.524 0 191.319 97.516 217.617 129.418-26.253 31.912-114.868 129.395-217.617 129.395z"/><path d="M255.997 154.725c-55.842 0-101.275 45.433-101.275 101.275s45.433 101.275 101.275 101.275S357.272 311.842 357.272 256s-45.433-101.275-101.275-101.275zm0 168.791c-37.23 0-67.516-30.287-67.516-67.516s30.287-67.516 67.516-67.516 67.516 30.287 67.516 67.516-30.286 67.516-67.516 67.516z"/></svg><svg viewBox="0 0 512 512" id="icon-facebook" xmlns="http://www.w3.org/2000/svg"><path d="M512 256C512 114.6 397.4 0 256 0S0 114.6 0 256s114.6 256 256 256c1.5 0 3 0 4.5-.1V312.7h-55v-64.1h55v-47.2c0-54.7 33.4-84.5 82.2-84.5 23.4 0 43.5 1.7 49.3 2.5v57.2h-33.6c-26.5 0-31.7 12.6-31.7 31.1v40.8h63.5l-8.3 64.1h-55.2v189.5C433.7 471.4 512 372.9 512 256z"/></svg><svg fill="none" viewBox="0 0 200 170" id="icon-folder" xmlns="http://www.w3.org/2000/svg"><path d="M88 15.995V8.728a8 8 0 00-8-8H8a8 8 0 00-8 8v47.085h200V29.328a8 8 0 00-8-8H93.334A5.333 5.333 0 0188 15.995z" fill="#88C293"/><path d="M189.333 169.271H10.667C4.776 169.271 0 164.496 0 158.605V53.91h88.299a8 8 0 005.911-2.61l9.829-10.78a7.998 7.998 0 015.911-2.61H200v120.695c0 5.891-4.776 10.666-10.667 10.666z" fill="#B7E4C7"/></svg><svg fill="none" viewBox="0 0 325 250" id="icon-footer" xmlns="http://www.w3.org/2000/svg"><path d="M154.214 240.436c-1.447-1.441-2.166-3.199-2.166-5.263V33.554c0-2.268.719-4.126 2.166-5.574 1.439-1.44 3.196-2.168 5.258-2.168h80.137c24.956 0 44.655 5.784 59.094 17.342 14.437 11.565 21.658 28.39 21.658 50.483 0 15.281-3.766 27.981-11.294 38.095-7.531 10.12-17.588 17.449-30.165 21.989l45.172 78.973c.619 1.238.926 2.375.926 3.406 0 1.858-.673 3.406-2.01 4.647-1.343 1.237-2.839 1.858-4.485 1.858h-28.156c-3.509 0-6.189-.928-8.045-2.789-1.856-1.858-3.302-3.716-4.332-5.574l-39.913-73.4h-43.006s-39.4 81.042-40.839 79.594zm40.839-114.592h43.626c12.58 0 21.967-2.835 28.156-8.516 6.188-5.678 9.281-13.677 9.281-24 0-10.322-3.046-18.427-9.128-24.312-6.085-5.884-15.523-8.826-28.309-8.826h-43.626v65.654z" fill="#fff"/><path d="M138.478 24.07c62.327 0 112.854 50.577 112.854 112.965 0 62.389-50.527 112.965-112.854 112.965S25.623 199.424 25.623 137.035c0-62.388 50.524-112.964 112.855-112.964z" fill="#1B7118"/><path d="M38.86 117.201c1.253-6.311 7.381-10.407 13.683-9.153 6.305 1.254 10.397 7.388 9.144 13.7-1.253 6.311-7.381 10.407-13.686 9.153-6.302-1.258-10.398-7.389-9.141-13.7zM102.504 129.874a4.23 4.23 0 118.301 1.651 4.232 4.232 0 11-8.301-1.651z" fill="#fff"/><path d="M48.737 131.148l57.363 3.762.443-6.761-56.7-13.91-1.106 16.909z" fill="#fff"/><path d="M53.316 108.101l54.436 18.493-2.176 6.422-57.698-8.87 5.438-16.045zM54.026 80.551c3.573-5.35 10.797-6.788 16.143-3.212 5.345 3.576 6.781 10.808 3.212 16.158-3.569 5.35-10.797 6.789-16.142 3.213-5.349-3.573-6.785-10.808-3.213-16.159zM107.979 116.637a4.228 4.228 0 015.869-1.167 4.236 4.236 0 011.166 5.874 4.229 4.229 0 01-5.869 1.168 4.24 4.24 0 01-1.166-5.875z" fill="#fff"/><path d="M57.819 97.22l51.556 25.452 2.996-6.081-47.064-34.569-7.488 15.198z" fill="#fff"/><path d="M70.862 77.683l43.219 37.94-4.463 5.094-49.917-30.295 11.16-12.74zM82.049 52.501c5.345-3.576 12.57-2.135 16.142 3.216 3.573 5.35 2.133 12.582-3.209 16.158-5.345 3.576-12.573 2.135-16.142-3.216-3.576-5.35-2.136-12.582 3.209-16.158zM118.1 106.51a4.226 4.226 0 015.868 1.168 4.235 4.235 0 01-1.166 5.874 4.227 4.227 0 01-5.869-1.168 4.236 4.236 0 011.167-5.874z" fill="#fff"/><path d="M79.18 69.357l37.903 43.261 5.092-4.47-30.269-49.966L79.18 69.357z" fill="#fff"/><path d="M98.702 56.3l25.423 51.608-6.072 2.999-34.534-47.111 15.183-7.495zM118.66 37.32c6.305-1.254 12.43 2.842 13.686 9.154 1.256 6.31-2.839 12.442-9.144 13.7-6.305 1.254-12.43-2.843-13.687-9.154-1.253-6.311 2.843-12.446 9.145-13.7zM131.319 101.026a4.232 4.232 0 014.976 3.329 4.235 4.235 0 01-3.326 4.98 4.23 4.23 0 01-4.975-3.329 4.239 4.239 0 013.325-4.98z" fill="#fff"/><path d="M109.568 51.794l18.479 54.489 6.412-2.181-8.861-57.755-16.03 5.447z" fill="#fff"/><path d="M132.596 47.21l3.759 57.419-6.758.443-13.893-56.754 16.892-1.107zM158.293 37.32c6.305 1.254 10.397 7.389 9.144 13.7-1.253 6.311-7.381 10.408-13.686 9.153-6.305-1.254-10.398-7.388-9.145-13.7 1.253-6.31 7.382-10.407 13.687-9.153zM145.633 101.026a4.234 4.234 0 013.325 4.98 4.23 4.23 0 01-4.975 3.329 4.235 4.235 0 01-3.326-4.98 4.232 4.232 0 014.976-3.329z" fill="#fff"/><path d="M144.36 47.21l-3.763 57.419 6.758.443 13.894-56.754-16.889-1.107z" fill="#fff"/><path d="M167.384 51.794l-18.479 54.489-6.411-2.181 8.861-57.755 16.029 5.447zM194.907 52.501c5.345 3.576 6.781 10.808 3.209 16.158-3.572 5.35-10.797 6.789-16.142 3.216-5.346-3.576-6.782-10.808-3.21-16.158 3.569-5.35 10.798-6.788 16.143-3.216zM158.853 106.51a4.24 4.24 0 011.166 5.878 4.227 4.227 0 01-5.868 1.167 4.237 4.237 0 01-1.167-5.874 4.225 4.225 0 015.869-1.171z" fill="#fff"/><path d="M178.251 56.3l-25.423 51.608 6.071 2.999 34.535-47.111-15.183-7.495z" fill="#fff"/><path d="M197.773 69.357l-37.904 43.261-5.092-4.47 30.269-49.966 12.727 11.175zM222.929 80.551c3.573 5.35 2.133 12.586-3.212 16.159-5.345 3.576-12.57 2.135-16.143-3.213-3.572-5.35-2.132-12.582 3.213-16.158 5.342-3.576 12.57-2.138 16.142 3.212zM168.973 116.637a4.236 4.236 0 01-1.166 5.875 4.227 4.227 0 01-5.868-1.168 4.235 4.235 0 011.166-5.874 4.227 4.227 0 015.868 1.167z" fill="#fff"/><path d="M206.091 77.683l-43.219 37.94 4.462 5.094 49.917-30.295-11.16-12.74z" fill="#fff"/><path d="M219.134 97.22l-51.557 25.452-2.996-6.081 47.065-34.569 7.488 15.198zM238.092 117.201c1.253 6.311-2.839 12.442-9.144 13.7-6.305 1.254-12.43-2.842-13.686-9.153-1.254-6.312 2.839-12.443 9.144-13.7 6.305-1.258 12.433 2.842 13.686 9.153zM174.449 129.874a4.232 4.232 0 11-8.302 1.651 4.232 4.232 0 118.302-1.651z" fill="#fff"/><path d="M223.636 108.101L169.2 126.594l2.176 6.422 57.699-8.87-5.439-16.045z" fill="#fff"/><path d="M228.215 131.148l-57.362 3.762-.443-6.761 56.698-13.91 1.107 16.909zM238.092 156.87c-1.253 6.311-7.381 10.407-13.686 9.153-6.305-1.254-10.398-7.389-9.144-13.697 1.253-6.311 7.381-10.407 13.686-9.153 6.305 1.254 10.401 7.385 9.144 13.697zM174.449 144.197a4.232 4.232 0 11-8.302-1.651 4.232 4.232 0 118.302 1.651z" fill="#fff"/><path d="M228.215 142.923l-57.362-3.763-.443 6.762 56.698 13.91 1.107-16.909z" fill="#fff"/><path d="M223.636 165.969L169.2 147.476l2.176-6.418 57.699 8.867-5.439 16.044zM222.929 193.519c-3.572 5.351-10.797 6.789-16.142 3.216-5.345-3.573-6.782-10.808-3.213-16.158 3.569-5.351 10.798-6.789 16.143-3.216 5.345 3.576 6.781 10.808 3.212 16.158zM168.973 157.433a4.23 4.23 0 01-5.872 1.168 4.237 4.237 0 01-1.166-5.874 4.228 4.228 0 015.869-1.168 4.236 4.236 0 011.169 5.874z" fill="#fff"/><path d="M219.134 176.851l-51.557-25.452-2.996 6.081 47.065 34.568 7.488-15.197z" fill="#fff"/><path d="M206.091 196.388l-43.219-37.937 4.462-5.097 49.917 30.295-11.16 12.739zM194.907 221.57c-5.345 3.575-12.573 2.134-16.143-3.216-3.572-5.351-2.132-12.583 3.21-16.158 5.345-3.576 12.57-2.135 16.142 3.215 3.573 5.351 2.133 12.583-3.209 16.159zM158.853 167.561a4.231 4.231 0 01-5.872-1.168 4.235 4.235 0 011.166-5.874 4.228 4.228 0 015.869 1.167 4.234 4.234 0 01-1.163 5.875z" fill="#fff"/><path d="M197.773 204.714l-37.904-43.261-5.092 4.47 30.269 49.966 12.727-11.175z" fill="#fff"/><path d="M178.251 217.77l-25.423-51.607 6.071-2.996 34.535 47.111-15.183 7.492zM158.293 236.75c-6.305 1.255-12.43-2.842-13.687-9.153-1.253-6.311 2.84-12.442 9.145-13.7 6.305-1.254 12.43 2.842 13.686 9.154 1.253 6.311-2.843 12.445-9.144 13.699zM145.633 173.045a4.233 4.233 0 01-4.976-3.329 4.236 4.236 0 013.326-4.981 4.229 4.229 0 014.975 3.329 4.24 4.24 0 01-3.325 4.981z" fill="#fff"/><path d="M167.384 222.277l-18.479-54.486-6.411 2.178 8.861 57.755 16.029-5.447z" fill="#fff"/><path d="M144.36 226.86l-3.763-57.418 6.758-.44 13.894 56.751-16.889 1.107zM118.659 236.75c-6.305-1.254-10.397-7.388-9.144-13.696 1.253-6.311 7.382-10.408 13.687-9.153 6.305 1.254 10.397 7.388 9.144 13.699-1.253 6.312-7.381 10.405-13.687 9.15zM131.32 173.045a4.235 4.235 0 01-3.326-4.981 4.234 4.234 0 014.975-3.329 4.235 4.235 0 013.326 4.981 4.23 4.23 0 01-4.975 3.329z" fill="#fff"/><path d="M132.596 226.86l3.759-57.418-6.758-.44-13.893 56.751 16.892 1.107z" fill="#fff"/><path d="M109.568 222.277l18.479-54.486 6.412 2.178-8.861 57.755-16.03-5.447zM82.049 221.57c-5.346-3.576-6.782-10.808-3.213-16.159 3.57-5.35 10.797-6.788 16.143-3.215 5.345 3.575 6.781 10.807 3.209 16.158-3.57 5.35-10.797 6.791-16.14 3.216zM118.1 167.561a4.238 4.238 0 01-1.167-5.875 4.228 4.228 0 015.869-1.167 4.236 4.236 0 011.166 5.874 4.226 4.226 0 01-5.868 1.168z" fill="#fff"/><path d="M98.702 217.77l25.423-51.607-6.072-2.996-34.534 47.111 15.183 7.492z" fill="#fff"/><path d="M79.18 204.714l37.903-43.261 5.092 4.47-30.269 49.966-12.726-11.175zM54.026 193.519c-3.572-5.35-2.132-12.582 3.21-16.158 5.345-3.576 12.573-2.135 16.142 3.216 3.573 5.35 2.133 12.582-3.212 16.158-5.342 3.573-12.57 2.135-16.14-3.216zM107.979 157.433a4.235 4.235 0 011.166-5.874 4.227 4.227 0 015.869 1.168 4.236 4.236 0 01-1.167 5.874 4.227 4.227 0 01-5.868-1.168z" fill="#fff"/><path d="M70.862 196.388l43.219-37.937-4.463-5.097-49.917 30.295 11.16 12.739z" fill="#fff"/><path d="M57.819 176.851l51.556-25.452 2.996 6.081-47.064 34.568-7.488-15.197zM38.86 156.87c-1.253-6.312 2.84-12.443 9.144-13.7 6.305-1.255 12.43 2.842 13.687 9.153 1.253 6.311-2.84 12.442-9.145 13.697-6.308 1.257-12.433-2.839-13.686-9.15zM102.504 144.197a4.232 4.232 0 118.301-1.651 4.235 4.235 0 01-3.326 4.98 4.23 4.23 0 01-4.975-3.329z" fill="#fff"/><path d="M53.316 165.973l54.436-18.497-2.176-6.418-57.698 8.867 5.438 16.048z" fill="#fff"/><path d="M48.737 142.923l57.363-3.763.443 6.762-56.7 13.91-1.106-16.909zM22.211 148.362L.66 150.688l.232 2.156 21.552-2.326-.232-2.156zM.01 134.884l21.814-9.824-.033 2.342-7.178 3.315-.127 9.347 7.085 3.476-.033 2.418L0 135.411l.01-.527zm4.602.337l7.795 3.826.1-7.419-7.895 3.593zM2.76 109.662l23.25-5.63-.463 2.295-7.665 1.934-1.846 9.164 6.325 4.723-.477 2.372-19.228-14.337.103-.521zm4.462 1.181l6.958 5.197 1.463-7.272-8.421 2.075zM10.264 83.49l1.063-.78c.527.65.956 1.117 1.286 1.407.334.29.79.607 1.37.944l.54-1.197 3.692 1.67-1.1 2.433-2.309-1.048c-1.153-.523-2.026-1.01-2.613-1.468-.583-.447-1.23-1.104-1.93-1.96zm2.703-5.98l1.063-.781c.526.65.956 1.117 1.29 1.407.332.29.79.607 1.369.944l.54-1.197 3.692 1.67-1.1 2.433-2.309-1.048c-1.153-.523-2.026-1.01-2.616-1.46-.587-.444-1.23-1.102-1.93-1.969zM17.742 69.343l2.313-3.65c1.29-2.034 2.246-3.358 2.872-3.975.94-.93 2.033-1.475 3.283-1.635 1.25-.16 2.473.137 3.67.898.995.633 1.722 1.424 2.182 2.375.46.95.603 1.981.436 3.098-.166 1.118-.733 2.449-1.7 3.99l12.678-1.19-1.437 2.264-12.677 1.191-.656 1.034 8.498 5.4-1.16 1.832-18.302-11.632zm2.953-.694l6.221 3.953 2.027-3.139c.776-1.224 1.233-2.201 1.373-2.935a3.34 3.34 0 00-.244-2.082 3.65 3.65 0 00-1.4-1.577 3.508 3.508 0 00-1.989-.564 3.277 3.277 0 00-1.906.627c-.56.404-1.236 1.234-2.033 2.488l-2.05 3.23zM38.117 50.086c1.64-1.851 3.666-2.789 6.082-2.819 2.2-.023 4.135.707 5.802 2.189 1.676 1.487 2.622 3.372 2.842 5.654.22 2.281-.486 4.34-2.11 6.174-1.632 1.845-3.592 2.792-5.881 2.849-2.29.056-4.272-.66-5.945-2.145-1.663-1.474-2.613-3.306-2.856-5.494-.27-2.415.42-4.55 2.066-6.408zm1.506 1.348c-1.14 1.284-1.643 2.808-1.51 4.573.13 1.765.87 3.246 2.213 4.437a6.496 6.496 0 002.986 1.52c1.123.244 2.206.19 3.246-.163 1.043-.353 1.943-.96 2.703-1.818a6.253 6.253 0 001.476-2.902c.227-1.077.15-2.162-.227-3.246a6.533 6.533 0 00-1.866-2.785c-1.346-1.194-2.902-1.748-4.672-1.661-1.77.087-3.219.767-4.349 2.045zM48.154 39.762l1.646-1.244 1.67 2.211c-.043-1.247.097-2.291.417-3.125.453-1.131 1.14-2.045 2.056-2.739.62-.467 1.3-.79 2.043-.97.74-.177 1.44-.197 2.1-.06.659.136 1.399.483 2.229 1.04-.21-1.418-.104-2.699.326-3.843a6.089 6.089 0 012.06-2.788c.883-.668 1.832-1.035 2.845-1.098 1.014-.063 1.987.18 2.92.734.933.55 2.003 1.628 3.212 3.229l5.276 6.992-1.683 1.27-5.276-6.991c-1.036-1.374-1.846-2.242-2.429-2.609a3.187 3.187 0 00-1.94-.483c-.71.043-1.392.313-2.049.81a4.615 4.615 0 00-1.653 2.359 5.122 5.122 0 00-.027 2.978c.287 1.014 1.123 2.442 2.51 4.277l3.785 5.013-1.646 1.245-4.949-6.555c-1.166-1.548-2.056-2.522-2.662-2.932a3.317 3.317 0 00-2.01-.57c-.73.026-1.423.29-2.082.79-.76.574-1.3 1.341-1.613 2.302-.317.96-.34 1.948-.07 2.965.27 1.018 1.006 2.325 2.216 3.926l4.095 5.428-1.646 1.244-9.67-12.806zM87.594 15.368l6.865 14.504-1.836.87-1.18-2.492c-.33 1.321-.87 2.452-1.613 3.393-.743.94-1.696 1.684-2.849 2.231-2.05.974-4.155 1.061-6.312.26-2.156-.8-3.739-2.268-4.748-4.4-.99-2.088-1.104-4.222-.34-6.4.763-2.179 2.172-3.757 4.232-4.734 1.19-.564 2.386-.82 3.589-.774 1.203.05 2.41.407 3.616 1.078l-1.263-2.666 1.84-.87zM80.82 20.33a6.233 6.233 0 00-2.51 2.128 6.198 6.198 0 00-1.075 3.146c-.08 1.17.12 2.268.61 3.3a6.48 6.48 0 002.172 2.554c.967.684 2.013 1.078 3.14 1.178 1.13.1 2.199-.09 3.209-.567a6.424 6.424 0 002.532-2.148c.67-.948 1.043-1.979 1.12-3.09.077-1.11-.147-2.218-.667-3.318-.793-1.678-2.009-2.82-3.649-3.423-1.642-.607-3.269-.527-4.882.24zM92.576 7.569l2.087-.584 3.529 12.616c.42 1.498.706 2.422.866 2.775.333.794.77 1.418 1.303 1.865.533.447 1.246.747 2.136.904.89.153 1.733.12 2.526-.104a4.858 4.858 0 001.863-.997 4.59 4.59 0 001.246-1.668c.28-.64.417-1.358.407-2.151-.007-.57-.24-1.678-.7-3.326L104.31 4.283l2.086-.584 3.526 12.616c.523 1.865.763 3.426.72 4.677-.044 1.254-.49 2.458-1.347 3.616-.853 1.157-2.056 1.954-3.609 2.388-1.683.47-3.239.474-4.665.007-1.426-.467-2.53-1.308-3.306-2.519-.483-.744-1.023-2.175-1.616-4.296l-3.523-12.62zM123.322 1.2l12.163 20.619-2.329.227-4.086-6.775-9.294.907-2.669 7.432-2.406.234 8.094-22.593.527-.05zm.173 4.614l-2.936 8.18 7.378-.721-4.442-7.459zM140.307 8.166l-1.096-.714c.413-.724.697-1.294.85-1.711.15-.414.276-.954.373-1.618l-1.296-.073.226-4.05 2.663.15-.143 2.532c-.07 1.268-.214 2.255-.427 2.969-.21.71-.593 1.55-1.15 2.515zm6.549.367l-1.097-.71c.414-.725.697-1.295.85-1.712.15-.414.277-.954.37-1.618l-1.296-.073.226-4.05 2.663.15-.143 2.532c-.07 1.268-.214 2.255-.427 2.969-.207.71-.59 1.551-1.146 2.512z" fill="#fff"/></svg><svg fill="none" viewBox="0 0 1000 300" id="icon-header" xmlns="http://www.w3.org/2000/svg"><path d="M355.019 222.818c-10.85 0-19.991-1.783-27.415-5.361-7.431-3.572-13.115-8.696-17.052-15.379-3.944-6.683-6.171-14.656-6.682-23.913a188.483 188.483 0 01-.195-9.033c0-3.373.061-6.315.195-8.834.517-9.394 2.842-17.398 6.974-24.013 4.132-6.614 9.913-11.707 17.338-15.285 7.424-3.572 16.37-5.361 26.837-5.361 10.59 0 19.602 1.789 27.027 5.361 7.424 3.572 13.206 8.671 17.338 15.285 4.132 6.621 6.457 14.625 6.974 24.013.128 2.513.195 5.461.195 8.834 0 3.372-.067 6.383-.195 9.033-.517 9.263-2.745 17.236-6.682 23.913-3.943 6.683-9.621 11.807-17.052 15.379-7.424 3.572-16.626 5.361-27.605 5.361zm0-24.219c5.812 0 10.042-1.789 12.689-5.361 2.647-3.572 4.169-8.933 4.552-16.077.128-1.982.195-4.632.195-7.936 0-3.304-.067-5.953-.195-7.935-.389-7.014-1.905-12.337-4.552-15.978-2.647-3.64-6.877-5.461-12.689-5.461-5.684 0-9.883 1.821-12.597 5.461-2.714 3.641-4.199 8.964-4.454 15.978-.128 1.982-.195 4.631-.195 7.935 0 3.311.067 5.954.195 7.936.255 7.144 1.746 12.505 4.454 16.077 2.72 3.579 6.913 5.361 12.597 5.361zM430.389 220.83c-1.424 0-2.586-.462-3.487-1.391-.907-.922-1.357-2.113-1.357-3.572v-93.284c0-1.452.45-2.643 1.357-3.572.901-.922 2.063-1.39 3.487-1.39h21.117c1.418 0 2.581.468 3.487 1.39.901.929 1.358 2.12 1.358 3.572v6.752c2.58-3.572 6.201-6.714 10.85-9.426 4.65-2.712 10.139-4.133 16.468-4.27 14.855-.262 25.061 5.492 30.611 17.268 2.97-5.025 7.236-9.164 12.786-12.406 5.55-3.241 11.623-4.862 18.214-4.862 6.719 0 12.756 1.558 18.117 4.663 5.362 3.11 9.652 7.873 12.883 14.288 3.226 6.421 4.845 14.718 4.845 24.91v56.367c0 1.459-.481 2.65-1.455 3.572-.967.929-2.099 1.391-3.39 1.391h-22.474c-1.424 0-2.617-.462-3.584-1.391-.968-.922-1.455-2.113-1.455-3.572v-54.976c0-4.632-.651-8.304-1.935-11.016-1.29-2.711-3.037-4.663-5.234-5.853-2.197-1.191-4.716-1.789-7.558-1.789-2.325 0-4.619.598-6.877 1.789-2.264 1.19-4.071 3.142-5.422 5.853-1.357 2.712-2.033 6.384-2.033 11.016v54.976c0 1.459-.456 2.65-1.357 3.572-.907.929-2.069 1.391-3.487 1.391H492.39c-1.424 0-2.587-.462-3.487-1.391-.907-.922-1.357-2.113-1.357-3.572v-54.976c0-4.632-.712-8.304-2.13-11.016-1.424-2.711-3.232-4.663-5.423-5.853-2.197-1.191-4.649-1.789-7.363-1.789-2.325 0-4.619.598-6.877 1.789-2.264 1.19-4.071 3.142-5.429 5.853-1.357 2.712-2.032 6.321-2.032 10.816v55.176c0 1.459-.487 2.65-1.455 3.572-.967.929-2.166 1.391-3.584 1.391h-22.864zM633.053 222.818c-6.974 0-13.205-1.359-18.695-4.071-5.489-2.711-9.852-6.383-13.078-11.015-3.231-4.632-4.844-9.856-4.844-15.678 0-9.395 3.743-16.838 11.24-22.33 7.492-5.486 17.436-9.226 29.838-11.215l24.221-3.771v-2.781c0-4.762-.968-8.403-2.909-10.915-1.935-2.512-5.495-3.772-10.656-3.772-3.621 0-6.56.73-8.818 2.182-2.264 1.459-4.041 3.441-5.331 5.954-1.162 1.72-2.781 2.58-4.844 2.58h-21.702c-1.424 0-2.519-.43-3.292-1.29-.773-.86-1.101-1.883-.968-3.073 0-2.382.871-5.125 2.617-8.235 1.741-3.105 4.424-6.184 8.039-9.226 3.615-3.043 8.265-5.561 13.949-7.543 5.684-1.983 12.53-2.98 20.539-2.98 8.392 0 15.567.991 21.507 2.98 5.939 1.982 10.753 4.762 14.435 8.334 3.681 3.572 6.426 7.774 8.234 12.605 1.807 4.831 2.714 10.155 2.714 15.978v60.338c0 1.458-.487 2.649-1.455 3.572-.967.928-2.099 1.39-3.389 1.39H667.93c-1.424 0-2.586-.462-3.487-1.39-.907-.923-1.357-2.114-1.357-3.572v-6.945c-1.68 2.512-3.943 4.831-6.779 6.945-2.842 2.119-6.171 3.802-9.981 5.061-3.809 1.254-8.234 1.883-13.273 1.883zm9.111-22.629c3.742 0 7.138-.823 10.169-2.481 3.03-1.652 5.422-4.233 7.169-7.742 1.74-3.504 2.616-7.905 2.616-13.198v-2.78l-16.467 2.98c-6.074 1.06-10.498 2.68-13.273 4.862-2.781 2.182-4.169 4.732-4.169 7.643 0 2.25.645 4.164 1.942 5.754 1.29 1.59 2.969 2.811 5.038 3.672 2.063.86 4.388 1.29 6.975 1.29z" fill="#1B7118"/><path d="M776.049 222.818c-11.624 0-21.799-1.951-30.52-5.853-8.72-3.903-15.469-9.925-20.247-18.06-4.777-8.135-7.168-18.49-7.168-31.064V86.863c0-1.452.45-2.643 1.357-3.572.9-.922 2.063-1.39 3.487-1.39h24.994c1.417 0 2.58.468 3.487 1.39.9.929 1.357 2.12 1.357 3.572v80.779c0 8.603 2.032 15.055 6.104 19.35 4.071 4.301 9.785 6.452 17.149 6.452 7.23 0 12.883-2.151 16.955-6.452 4.071-4.295 6.103-10.747 6.103-19.35V86.857c0-1.453.487-2.643 1.455-3.572.968-.923 2.1-1.39 3.39-1.39h25.188c1.29 0 2.422.467 3.39 1.39.968.929 1.454 2.12 1.454 3.572v80.978c0 12.574-2.391 22.922-7.168 31.064-4.778 8.135-11.496 14.157-20.15 18.059-8.66 3.903-18.866 5.86-30.617 5.86zM851.997 220.83c-1.035 0-1.972-.431-2.812-1.291-.839-.86-1.259-1.814-1.259-2.88 0-.661.067-1.253.194-1.783l45.533-127.42c.39-1.453 1.193-2.744 2.422-3.872 1.23-1.122 2.94-1.69 5.137-1.69h28.675c2.197 0 3.907.562 5.137 1.69 1.229 1.128 2.032 2.419 2.422 3.871l45.338 127.421a4.06 4.06 0 01.389 1.783c0 1.06-.42 2.02-1.259 2.88-.84.86-1.838 1.291-3.001 1.291h-23.831c-1.935 0-3.39-.499-4.357-1.49-.968-.992-1.583-1.883-1.844-2.681l-7.559-20.241h-51.734l-7.363 20.241c-.262.792-.84 1.689-1.747 2.681-.907.991-2.453 1.49-4.649 1.49h-23.832zm45.533-52.995h36.039l-18.214-52.396-17.825 52.396z" fill="#B80000"/><path d="M125.838 216.678c-1.417-1.447-2.117-3.204-2.117-5.274V9.5c0-2.275.706-4.133 2.117-5.585 1.412-1.446 3.129-2.17 5.149-2.17h78.42c24.421 0 43.701 5.792 57.832 17.368 14.125 11.583 21.196 28.433 21.196 50.557 0 15.304-3.688 28.021-11.052 38.145-7.369 10.137-17.21 17.474-29.521 22.018l44.206 79.09c.603 1.24.907 2.381.907 3.41 0 1.864-.657 3.41-1.966 4.65-1.314 1.241-2.775 1.858-4.387 1.858h-27.55c-3.433 0-6.055-.929-7.875-2.793-1.814-1.858-3.232-3.722-4.236-5.585l-39.057-73.504h-42.083c-.018.012-38.577 81.165-39.983 79.719zm39.965-114.754h42.691c12.311 0 21.494-2.836 27.55-8.528 6.055-5.685 9.086-13.696 9.086-24.038 0-10.336-2.982-18.452-8.934-24.343-5.958-5.891-15.19-8.84-27.702-8.84h-42.691v65.749z" fill="#1B7118"/><path d="M110.436 0c60.991 0 110.437 50.65 110.437 113.127 0 62.476-49.446 113.126-110.437 113.126C49.446 226.253 0 175.603 0 113.127 0 50.65 49.446 0 110.436 0z" fill="#B80000"/><path d="M12.956 93.265c1.23-6.32 7.224-10.423 13.388-9.163 6.171 1.259 10.176 7.4 8.946 13.72-1.229 6.321-7.223 10.423-13.394 9.164-6.159-1.259-10.17-7.4-8.94-13.72zM75.236 105.958c.444-2.301 2.623-3.791 4.869-3.336 2.245.455 3.7 2.693 3.255 4.988-.444 2.3-2.629 3.79-4.868 3.335-2.246-.455-3.7-2.693-3.256-4.987z" fill="#fff"/><path d="M22.62 107.229l56.134 3.772.438-6.77-55.49-13.933-1.082 16.931z" fill="#fff"/><path d="M27.105 84.151l53.267 18.521-2.13 6.427-56.462-8.877 5.325-16.07zM27.794 56.56c3.493-5.355 10.565-6.795 15.798-3.217 5.228 3.579 6.634 10.822 3.14 16.184-3.493 5.355-10.564 6.8-15.798 3.216-5.227-3.578-6.633-10.822-3.14-16.183zM80.6 92.704c1.271-1.95 3.84-2.475 5.744-1.172 1.905 1.303 2.41 3.94 1.144 5.885-1.272 1.951-3.84 2.475-5.745 1.172-1.905-1.303-2.416-3.94-1.144-5.885z" fill="#fff"/><path d="M31.511 73.254l50.45 25.49 2.934-6.09-46.057-34.616-7.327 15.216z" fill="#fff"/><path d="M44.273 53.686L86.57 91.682l-4.37 5.105-48.85-30.34 10.924-12.76zM55.22 28.47c5.228-3.578 12.3-2.138 15.8 3.217 3.492 5.355 2.087 12.605-3.141 16.183-5.228 3.578-12.3 2.138-15.799-3.217-3.499-5.355-2.093-12.598 3.14-16.183zM90.5 82.555c1.905-1.302 4.474-.779 5.745 1.172 1.272 1.952.761 4.582-1.144 5.885-1.904 1.303-4.473.78-5.745-1.172-1.271-1.945-.76-4.582 1.145-5.885z" fill="#fff"/><path d="M52.415 45.352L89.5 88.677l4.984-4.476-29.62-50.04-12.45 11.19z" fill="#fff"/><path d="M71.513 32.28l24.884 51.678-5.946 3.005-33.793-47.178 14.855-7.506zM91.048 13.272c6.17-1.26 12.165 2.849 13.394 9.164 1.229 6.321-2.781 12.461-8.946 13.72-6.17 1.26-12.165-2.848-13.394-9.163-1.23-6.321 2.775-12.468 8.946-13.721zM103.438 77.07c2.246-.455 4.424 1.035 4.869 3.335.444 2.3-1.011 4.532-3.256 4.987-2.246.455-4.424-1.035-4.869-3.335-.444-2.3 1.011-4.532 3.256-4.987z" fill="#fff"/><path d="M82.15 27.766l18.081 54.565 6.275-2.182-8.666-57.838-15.69 5.455z" fill="#fff"/><path d="M104.687 23.171l3.675 57.502-6.609.442-13.601-56.834 16.535-1.11zM129.832 13.272c6.171 1.26 10.175 7.4 8.946 13.72-1.229 6.322-7.224 10.424-13.394 9.165-6.171-1.26-10.176-7.4-8.946-13.721 1.229-6.321 7.223-10.423 13.394-9.164zM117.441 77.07c2.246.455 3.7 2.693 3.256 4.987-.444 2.3-2.629 3.79-4.869 3.335-2.245-.455-3.7-2.693-3.255-4.987.444-2.3 2.622-3.797 4.868-3.335z" fill="#fff"/><path d="M116.193 23.171l-3.676 57.502 6.609.442 13.595-56.834-16.528-1.11z" fill="#fff"/><path d="M138.729 27.766L120.642 82.33l-6.274-2.182 8.672-57.838 15.689 5.455zM165.658 28.47c5.227 3.578 6.633 10.822 3.14 16.183-3.493 5.361-10.565 6.795-15.798 3.217-5.228-3.578-6.634-10.822-3.141-16.183 3.5-5.355 10.571-6.795 15.799-3.217zM130.379 82.555c1.905 1.303 2.41 3.934 1.144 5.885-1.271 1.951-3.84 2.475-5.744 1.172-1.905-1.303-2.41-3.933-1.144-5.885 1.271-1.945 3.846-2.468 5.744-1.172z" fill="#fff"/><path d="M149.361 32.28l-24.879 51.678 5.94 3.005 33.8-47.178-14.861-7.506z" fill="#fff"/><path d="M168.462 45.352L131.37 88.677l-4.978-4.476 29.618-50.04 12.452 11.19zM193.08 56.56c3.493 5.355 2.088 12.605-3.14 16.183-5.228 3.579-12.299 2.139-15.798-3.216-3.493-5.355-2.088-12.6 3.14-16.184 5.234-3.578 12.305-2.138 15.798 3.217zM140.281 92.704c1.272 1.952.761 4.582-1.144 5.885-1.905 1.303-4.473.78-5.745-1.172-1.272-1.951-.761-4.582 1.144-5.885 1.905-1.303 4.473-.779 5.745 1.172z" fill="#fff"/><path d="M176.604 53.686l-42.295 37.996 4.37 5.105 48.843-30.34-10.918-12.76z" fill="#fff"/><path d="M189.367 73.254l-50.45 25.49-2.933-6.09 46.056-34.616 7.327 15.216zM207.923 93.265c1.23 6.322-2.781 12.462-8.946 13.721-6.17 1.259-12.165-2.849-13.394-9.164-1.229-6.32 2.781-12.461 8.946-13.72 6.165-1.26 12.165 2.842 13.394 9.163zM145.641 105.958c.444 2.3-1.011 4.532-3.256 4.987-2.246.455-4.424-1.035-4.869-3.335-.444-2.301 1.011-4.533 3.256-4.988 2.24-.455 4.424 1.035 4.869 3.336z" fill="#fff"/><path d="M193.773 84.151l-53.268 18.521 2.13 6.427 56.463-8.877-5.325-16.07z" fill="#fff"/><path d="M198.253 107.229l-56.134 3.772-.432-6.77 55.483-13.933 1.083 16.931zM207.921 132.994c-1.229 6.321-7.224 10.423-13.394 9.164-6.171-1.259-10.176-7.4-8.946-13.721 1.229-6.321 7.223-10.423 13.394-9.164 6.165 1.259 10.175 7.4 8.946 13.721zM145.641 120.302c-.445 2.3-2.629 3.79-4.869 3.335-2.245-.455-3.7-2.693-3.256-4.987.445-2.301 2.629-3.79 4.869-3.335 2.245.455 3.7 2.686 3.256 4.987z" fill="#fff"/><path d="M198.253 119.024l-56.134-3.772-.432 6.776 55.483 13.927 1.083-16.931z" fill="#fff"/><path d="M193.773 142.108l-53.268-18.527 2.13-6.427 56.463 8.883-5.325 16.071zM193.08 169.693c-3.493 5.355-10.564 6.801-15.798 3.217-5.228-3.579-6.633-10.822-3.14-16.184 3.493-5.355 10.564-6.801 15.798-3.216 5.228 3.584 6.633 10.828 3.14 16.183zM140.281 133.555c-1.272 1.951-3.84 2.475-5.745 1.172-1.905-1.303-2.416-3.94-1.144-5.885 1.272-1.951 3.846-2.475 5.745-1.172 1.905 1.303 2.416 3.934 1.144 5.885z" fill="#fff"/><path d="M189.367 152.999l-50.45-25.485-2.933 6.085 46.056 34.623 7.327-15.223z" fill="#fff"/><path d="M176.604 172.567l-42.295-37.996 4.37-5.099 48.843 30.334-10.918 12.761zM165.658 197.783c-5.228 3.578-12.305 2.138-15.799-3.217-3.493-5.355-2.087-12.605 3.141-16.183 5.227-3.578 12.299-2.138 15.798 3.217 3.499 5.355 2.094 12.605-3.14 16.183zM130.38 143.698c-1.905 1.302-4.473.779-5.745-1.172-1.272-1.952-.761-4.582 1.144-5.885 1.905-1.303 4.473-.779 5.745 1.172 1.272 1.951.76 4.582-1.144 5.885z" fill="#fff"/><path d="M168.462 180.908l-37.092-43.326-4.978 4.476 29.618 50.033 12.452-11.183z" fill="#fff"/><path d="M149.361 193.98l-24.879-51.679 5.94-3.005 33.8 47.179-14.861 7.505zM129.832 212.987c-6.171 1.26-12.165-2.849-13.395-9.164-1.229-6.321 2.782-12.461 8.946-13.72 6.171-1.26 12.166 2.849 13.395 9.163 1.229 6.322-2.781 12.462-8.946 13.721zM117.441 149.19c-2.246.455-4.424-1.035-4.868-3.336-.445-2.3 1.01-4.532 3.255-4.987 2.246-.455 4.425 1.035 4.869 3.335.444 2.295-1.01 4.526-3.256 4.988z" fill="#fff"/><path d="M138.729 198.493l-18.087-54.565-6.274 2.182 8.672 57.838 15.689-5.455z" fill="#fff"/><path d="M116.193 203.082l-3.676-57.502 6.609-.442 13.595 56.834-16.528 1.11zM91.048 212.987c-6.171-1.259-10.176-7.399-8.946-13.721 1.229-6.321 7.223-10.423 13.394-9.163 6.171 1.259 10.175 7.399 8.946 13.72-1.229 6.315-7.223 10.417-13.394 9.164zM103.438 149.19c-2.245-.455-3.7-2.693-3.256-4.988.445-2.3 2.629-3.79 4.869-3.335 2.245.455 3.7 2.693 3.256 4.987-.445 2.301-2.629 3.791-4.869 3.336z" fill="#fff"/><path d="M104.687 203.082l3.675-57.502-6.609-.442-13.601 56.834 16.535 1.11z" fill="#fff"/><path d="M82.15 198.493l18.081-54.565 6.275 2.182-8.666 57.838-15.69-5.455zM55.222 197.783c-5.228-3.578-6.64-10.822-3.14-16.183 3.499-5.362 10.564-6.802 15.798-3.217 5.227 3.578 6.633 10.822 3.14 16.183-3.5 5.355-10.57 6.795-15.798 3.217zM90.5 143.698c-1.904-1.303-2.415-3.934-1.144-5.885 1.272-1.951 3.84-2.475 5.745-1.172 1.905 1.303 2.41 3.933 1.144 5.885-1.272 1.951-3.846 2.474-5.744 1.172z" fill="#fff"/><path d="M71.513 193.98l24.884-51.679-5.946-3.005-33.793 47.179 14.855 7.505z" fill="#fff"/><path d="M52.415 180.908L89.5 137.582l4.984 4.476-29.62 50.033-12.45-11.183zM27.794 169.693c-3.493-5.355-2.087-12.599 3.14-16.183 5.228-3.579 12.3-2.139 15.799 3.216 3.493 5.355 2.087 12.599-3.14 16.184-5.228 3.584-12.3 2.138-15.799-3.217zM80.6 133.555c-1.273-1.951-.762-4.582 1.143-5.885s4.473-.779 5.745 1.172c1.272 1.951.76 4.582-1.144 5.885a4.088 4.088 0 01-5.745-1.172z" fill="#fff"/><path d="M44.273 172.567l42.296-37.996-4.37-5.099-48.85 30.334 10.924 12.761z" fill="#fff"/><path d="M31.511 152.999l50.45-25.485 2.934 6.085-46.057 34.623-7.327-15.223zM12.956 132.994c-1.23-6.321 2.781-12.462 8.946-13.715 6.17-1.259 12.165 2.849 13.394 9.164 1.23 6.321-2.78 12.462-8.945 13.721-6.171 1.253-12.166-2.855-13.395-9.17zM75.236 120.302c-.444-2.301 1.01-4.532 3.256-4.987 2.245-.455 4.424 1.034 4.868 3.335.445 2.3-1.01 4.532-3.255 4.987-2.246.455-4.425-1.035-4.869-3.335z" fill="#fff"/><path d="M27.105 142.108l53.267-18.527-2.13-6.427-56.462 8.883 5.325 16.071z" fill="#fff"/><path d="M22.62 119.024l56.134-3.772.438 6.776-55.49 13.927-1.082-16.931z" fill="#fff"/><path d="M19.669 249.618h-3.87v39.66h3.87v-39.66zM48.276 275.145H31.614v14.126h-3.682v-29.33h3.682v11.645h16.662v-11.645h3.682v29.33h-3.681v-14.126zM83.386 248.62h3.682v15.753c2.3-3.347 5.605-5.024 9.92-5.024 4.156 0 7.643 1.446 10.461 4.339 2.817 2.892 4.223 6.607 4.223 11.133 0 4.476-1.424 8.148-4.266 11.028-2.842 2.874-6.28 4.314-10.315 4.314-4.424 0-7.765-1.764-10.03-5.293V300H83.38v-15.13c-2.227 3.547-5.599 5.318-10.108 5.318-3.968 0-7.376-1.44-10.224-4.314s-4.279-6.558-4.279-11.053c0-4.532 1.406-8.241 4.224-11.133 2.818-2.893 6.305-4.339 10.461-4.339 4.406 0 7.71 1.677 9.92 5.024V248.62h.012zm-20.868 26.014c0 3.273 1.029 6.072 3.086 8.41s4.814 3.503 8.264 3.503c1.193 0 2.47-.311 3.84-.929 1.37-.617 2.465-1.402 3.299-2.344a9.464 9.464 0 001.88-3.279c.42-1.24.633-3.054.633-5.448 0-3.809-.962-6.726-2.89-8.746-1.93-2.02-4.26-3.03-6.993-3.03-3.067 0-5.684 1.122-7.857 3.373-2.178 2.244-3.262 5.074-3.262 8.49zm24.446.674c0 3.503.974 6.252 2.915 8.247 1.948 1.995 4.181 2.992 6.707 2.992 3.432 0 6.183-1.165 8.252-3.503 2.069-2.338 3.104-5.149 3.104-8.441 0-3.397-1.09-6.215-3.274-8.466-2.185-2.244-4.796-3.372-7.845-3.372-2.75 0-5.081 1.004-6.992 3.005-1.911 2.013-2.867 5.193-2.867 9.538zM132.047 259.187c4.412 0 8.07 1.633 10.967 4.906 2.635 2.986 3.955 6.514 3.955 10.597 0 4.096-1.393 7.681-4.181 10.741-2.787 3.067-6.365 4.595-10.741 4.595-4.394 0-7.984-1.534-10.771-4.595-2.788-3.067-4.181-6.645-4.181-10.741 0-4.064 1.32-7.586 3.955-10.566 2.903-3.292 6.573-4.937 10.997-4.937zm-.012 3.696c-3.061 0-5.696 1.16-7.899 3.479-2.203 2.319-3.299 5.124-3.299 8.409 0 2.12.499 4.096 1.504 5.935 1.004 1.833 2.361 3.248 4.065 4.245 1.71.998 3.584 1.497 5.623 1.497s3.919-.499 5.623-1.497c1.71-.997 3.061-2.412 4.065-4.245 1.004-1.833 1.503-3.809 1.503-5.935 0-3.291-1.107-6.09-3.316-8.409-2.191-2.319-4.82-3.479-7.869-3.479zM153.84 259.941h3.682v5.392c1.455-2.051 3.128-3.584 5.021-4.607 1.892-1.022 4.004-1.539 6.335-1.539 4.065 0 7.546 1.502 10.437 4.501 2.891 3.004 4.339 6.614 4.339 10.84 0 4.314-1.436 7.973-4.297 10.984-2.866 3.011-6.322 4.514-10.369 4.514-2.276 0-4.376-.486-6.287-1.459-1.911-.972-3.639-2.419-5.179-4.339V300h-3.682v-40.059zm14.74 2.886c-3.189 0-5.867 1.141-8.052 3.423-2.178 2.281-3.268 5.118-3.268 8.509 0 2.225.487 4.227 1.455 6.003.974 1.777 2.361 3.186 4.175 4.227 1.813 1.041 3.724 1.564 5.738 1.564 1.978 0 3.841-.523 5.581-1.577 1.741-1.047 3.128-2.518 4.163-4.401 1.034-1.882 1.545-3.859 1.545-5.922 0-2.082-.511-4.058-1.533-5.922-1.023-1.864-2.404-3.317-4.138-4.351-1.729-1.035-3.615-1.553-5.666-1.553zM221.657 259.941h1.053l9.725 29.33h-3.846l-7.096-21.575-11.015 21.575h-.688l-11.039-21.606-7.072 21.606h-3.84l9.786-29.33h.998l11.539 22.947 11.495-22.947zM266.454 259.941v29.33h-3.634v-5.043c-1.545 1.927-3.274 3.373-5.197 4.339-1.923.973-4.022 1.459-6.305 1.459-4.053 0-7.515-1.503-10.382-4.514-2.866-3.011-4.302-6.67-4.302-10.984 0-4.226 1.448-7.836 4.345-10.84 2.897-3.005 6.378-4.501 10.449-4.501 2.349 0 4.479.511 6.384 1.539 1.905 1.023 3.572 2.563 5.014 4.607v-5.392h3.628zm-14.722 2.886a10.94 10.94 0 00-5.678 1.546c-1.734 1.035-3.115 2.481-4.138 4.352-1.022 1.863-1.54 3.84-1.54 5.922 0 2.063.518 4.039 1.552 5.922 1.035 1.883 2.422 3.354 4.169 4.401 1.747 1.054 3.615 1.577 5.611 1.577 2.014 0 3.925-.517 5.733-1.564 1.807-1.042 3.195-2.45 4.168-4.227.974-1.777 1.461-3.778 1.461-6.003 0-3.392-1.089-6.228-3.274-8.51-2.191-2.275-4.875-3.416-8.064-3.416zM301.514 289.271h-26.765v-29.33h3.682v25.777h16.662v-25.777h3.682v25.777h6.214v8.191h-3.475v-4.638zM311.214 247.866c.839 0 1.551.305 2.148.916.596.611.888 1.347.888 2.207 0 .848-.298 1.571-.888 2.182-.597.611-1.309.916-2.148.916-.822 0-1.528-.305-2.124-.916a3.011 3.011 0 01-.889-2.182c0-.86.298-1.602.889-2.207.59-.611 1.302-.916 2.124-.916zm-1.832 12.075h3.682v29.33h-3.682v-29.33zM324.409 259.941v21.7l21.026-21.7h.292v29.33h-3.682v-21.494l-20.868 21.501h-.444v-29.331h3.676v-.006zm-.524-11.782h3.475a5.586 5.586 0 002.398 2.101c.998.467 2.191.704 3.578.704 1.406 0 2.538-.206 3.396-.617.858-.411 1.674-1.141 2.447-2.182h3.371c-.39 1.615-1.375 2.974-2.964 4.058-1.588 1.085-3.682 1.634-6.274 1.634-2.58 0-4.686-.536-6.317-1.602-1.637-1.079-2.672-2.438-3.11-4.096zM374.285 275.145h-16.662v14.126h-3.682v-29.33h3.682v11.645h16.662v-11.645h3.682v29.33h-3.682v-14.126zM399.731 259.187c4.412 0 8.069 1.633 10.966 4.906 2.635 2.986 3.956 6.514 3.956 10.597 0 4.096-1.394 7.681-4.181 10.741-2.787 3.067-6.366 4.595-10.741 4.595-4.394 0-7.985-1.534-10.772-4.595-2.787-3.067-4.181-6.645-4.181-10.741 0-4.064 1.321-7.586 3.956-10.566 2.903-3.292 6.573-4.937 10.997-4.937zm-.012 3.696c-3.061 0-5.697 1.16-7.9 3.479-2.203 2.319-3.298 5.124-3.298 8.409 0 2.12.505 4.096 1.503 5.935 1.004 1.833 2.361 3.248 4.065 4.245 1.71.998 3.585 1.497 5.624 1.497 2.038 0 3.919-.499 5.623-1.497 1.71-.997 3.061-2.412 4.065-4.245 1.004-1.833 1.503-3.809 1.503-5.935 0-3.291-1.108-6.09-3.317-8.409-2.19-2.319-4.819-3.479-7.868-3.479zM433.555 272.72h-14.477v3.292h14.477v-3.292zM467.896 259.941v29.33h-3.633v-5.043c-1.546 1.927-3.274 3.373-5.197 4.339-1.923.973-4.023 1.459-6.305 1.459-4.053 0-7.515-1.503-10.382-4.514-2.866-3.011-4.302-6.67-4.302-10.984 0-4.226 1.448-7.836 4.345-10.84 2.897-3.005 6.378-4.501 10.449-4.501 2.349 0 4.479.511 6.384 1.539 1.905 1.023 3.572 2.563 5.014 4.607v-5.392h3.627zm-14.721 2.886a10.94 10.94 0 00-5.678 1.546c-1.734 1.035-3.116 2.481-4.138 4.352-1.022 1.863-1.54 3.84-1.54 5.922 0 2.063.518 4.039 1.552 5.922 1.035 1.883 2.422 3.354 4.169 4.401 1.746 1.054 3.615 1.577 5.611 1.577 2.014 0 3.925-.517 5.733-1.564 1.807-1.042 3.194-2.45 4.168-4.227.974-1.777 1.461-3.778 1.461-6.003 0-3.392-1.09-6.228-3.274-8.51-2.191-2.275-4.875-3.416-8.064-3.416zM496.534 275.145h-16.663v14.126h-3.682v-29.33h3.682v11.645h16.663v-11.645h3.682v29.33h-3.682v-14.126zM536.956 259.941v29.33h-3.633v-5.043c-1.545 1.927-3.274 3.373-5.197 4.339-1.923.973-4.022 1.459-6.305 1.459-4.053 0-7.515-1.503-10.382-4.514-2.866-3.011-4.302-6.67-4.302-10.984 0-4.226 1.448-7.836 4.345-10.84 2.897-3.005 6.378-4.501 10.449-4.501 2.349 0 4.479.511 6.384 1.539 1.905 1.023 3.572 2.563 5.014 4.607v-5.392h3.627zm-14.721 2.886a10.94 10.94 0 00-5.678 1.546c-1.734 1.035-3.116 2.481-4.138 4.352-1.022 1.863-1.54 3.84-1.54 5.922 0 2.063.518 4.039 1.552 5.922 1.035 1.883 2.422 3.354 4.169 4.401 1.746 1.054 3.615 1.577 5.611 1.577 2.014 0 3.925-.517 5.733-1.564 1.807-1.042 3.195-2.45 4.168-4.227.974-1.777 1.461-3.778 1.461-6.003 0-3.392-1.09-6.228-3.274-8.51-2.191-2.275-4.875-3.416-8.064-3.416zM569.495 289.271h-3.925l-9.585-21.357-9.506 21.357h-3.949l13.133-29.33h.657l13.175 29.33zM576.397 247.866c.839 0 1.558.305 2.148.916.596.611.888 1.347.888 2.207 0 .848-.298 1.571-.888 2.182-.596.611-1.309.916-2.148.916-.822 0-1.528-.305-2.124-.916a3.011 3.011 0 01-.889-2.182c0-.86.298-1.602.889-2.207.59-.611 1.302-.916 2.124-.916zm-1.832 12.075h3.688v29.33h-3.688v-29.33zM582.701 259.941h18.841v3.26h-7.583v26.07h-3.682v-26.07h-7.576v-3.26zM610.228 259.941v21.7l21.032-21.7h.286v29.33h-3.682v-21.494l-20.874 21.494h-.444v-29.33h3.682zM652.546 276.037h-6.463c-2.928 0-5.094-.773-6.5-2.319-1.412-1.546-2.112-3.691-2.112-6.446v-7.331h3.603v5.311c0 3.416.475 5.53 1.418 6.353.943.816 2.501 1.228 4.674 1.228h5.386v-12.886h3.681v29.331h-3.681v-13.241h-.006zM684.788 275.145h-16.662v14.126h-3.682v-29.33h3.682v11.645h16.662v-11.645h3.682v29.33h-3.682v-14.126zM720.791 279.54l3.104 1.671c-1.016 2.051-2.197 3.703-3.53 4.962a14.028 14.028 0 01-4.503 2.874c-1.667.655-3.554.985-5.666.985-4.674 0-8.325-1.571-10.96-4.707-2.635-3.135-3.95-6.682-3.95-10.635 0-3.721 1.114-7.038 3.347-9.949 2.83-3.703 6.61-5.554 11.356-5.554 4.881 0 8.782 1.895 11.697 5.691 2.075 2.675 3.128 6.022 3.158 10.031h-25.766c.073 3.41 1.132 6.202 3.189 8.378 2.057 2.176 4.594 3.266 7.613 3.266 1.46 0 2.878-.261 4.254-.779 1.381-.517 2.55-1.209 3.517-2.069.968-.861 2.015-2.245 3.14-4.165zm0-7.898c-.493-2.014-1.205-3.622-2.148-4.825-.943-1.203-2.185-2.176-3.73-2.911a11.205 11.205 0 00-4.875-1.104c-2.812 0-5.228.929-7.248 2.774-1.473 1.347-2.593 3.373-3.347 6.066h21.348zM775.167 259.941v29.33h-3.633v-5.043c-1.546 1.927-3.274 3.373-5.197 4.339-1.923.973-4.023 1.459-6.305 1.459-4.053 0-7.516-1.503-10.382-4.514-2.866-3.011-4.303-6.67-4.303-10.984 0-4.226 1.449-7.836 4.346-10.84 2.896-3.005 6.377-4.501 10.449-4.501 2.349 0 4.479.511 6.384 1.539 1.904 1.023 3.572 2.563 5.014 4.607v-5.392h3.627zm-14.727 2.886c-2.051 0-3.944.518-5.678 1.546-1.735 1.035-3.116 2.481-4.138 4.352-1.023 1.863-1.54 3.84-1.54 5.922 0 2.063.517 4.039 1.552 5.922 1.034 1.883 2.422 3.354 4.169 4.401 1.746 1.054 3.614 1.577 5.611 1.577 2.014 0 3.925-.517 5.732-1.564 1.808-1.042 3.195-2.45 4.169-4.227.974-1.777 1.46-3.778 1.46-6.003 0-3.392-1.089-6.228-3.274-8.51-2.19-2.275-4.874-3.416-8.063-3.416zM787.137 263.257v26.014h-3.681v-29.33h14.471v3.316h-10.79zM827.01 279.54l3.104 1.671c-1.017 2.051-2.197 3.703-3.53 4.962a14.033 14.033 0 01-4.504 2.874c-1.667.655-3.554.985-5.665.985-4.674 0-8.325-1.571-10.961-4.707-2.635-3.135-3.949-6.682-3.949-10.635 0-3.721 1.114-7.038 3.347-9.949 2.83-3.703 6.609-5.554 11.356-5.554 4.88 0 8.781 1.895 11.696 5.691 2.076 2.675 3.128 6.022 3.159 10.031h-25.767c.073 3.41 1.132 6.202 3.189 8.378 2.057 2.176 4.595 3.266 7.613 3.266 1.461 0 2.879-.261 4.254-.779 1.382-.517 2.55-1.209 3.518-2.069.973-.861 2.02-2.245 3.14-4.165zm0-7.898c-.493-2.014-1.205-3.622-2.148-4.825-.944-1.203-2.185-2.176-3.731-2.911a11.204 11.204 0 00-4.874-1.104c-2.812 0-5.228.929-7.249 2.774-1.472 1.347-2.592 3.373-3.347 6.066h21.349zM858.277 275.145h-16.656v14.126h-3.688v-29.33h3.688v11.645h16.656v-11.645h3.688v29.33h-3.688v-14.126zM866.961 259.941h18.848v3.26h-7.583v26.07h-3.682v-26.07h-7.583v-3.26zM918.598 266.038l-2.921 1.857c-2.525-3.428-5.97-5.149-10.327-5.149-3.487 0-6.384 1.147-8.69 3.448-2.307 2.3-3.457 5.086-3.457 8.378 0 2.138.529 4.145 1.588 6.028 1.059 1.889 2.514 3.348 4.364 4.389 1.85 1.041 3.919 1.558 6.219 1.558 4.205 0 7.638-1.714 10.303-5.149l2.921 1.97c-1.369 2.113-3.207 3.747-5.513 4.912-2.307 1.166-4.936 1.746-7.881 1.746-4.528 0-8.283-1.471-11.265-4.42-2.982-2.949-4.473-6.533-4.473-10.754 0-2.842.7-5.479 2.094-7.91a14.863 14.863 0 015.751-5.704c2.44-1.366 5.166-2.051 8.185-2.051 1.893 0 3.724.299 5.489.891 1.765.592 3.262 1.365 4.491 2.319 1.218.954 2.264 2.163 3.122 3.641zM922.469 259.941h18.841v3.26h-7.576v26.07h-3.688v-26.07h-7.577v-3.26zM954.634 289.271h-8.32v-29.33h8.186c3.122 0 5.373.736 6.749 2.207 1.375 1.471 2.069 3.198 2.069 5.168 0 2.979-1.278 4.999-3.84 6.059 3.718 1.347 5.58 3.952 5.58 7.799-.006 5.404-3.481 8.097-10.424 8.097zm-4.638-26.063v9.138h2.404c2.179 0 3.609-.087 4.278-.268.67-.18 1.297-.623 1.887-1.327.59-.711.882-1.646.882-2.812 0-1.216-.31-2.238-.925-3.061-.614-.823-1.259-1.309-1.941-1.452-.676-.144-2.069-.212-4.181-.212h-2.404v-.006zm0 12.611v10.273h3.956c1.862 0 3.195-.125 3.998-.361.804-.244 1.485-.767 2.057-1.578.572-.81.858-1.832.858-3.073 0-1.602-.493-2.874-1.479-3.827-.985-.954-2.288-1.428-3.907-1.428h-5.483v-.006zM985.078 259.187c4.412 0 8.07 1.633 10.966 4.906 2.635 2.986 3.956 6.514 3.956 10.597 0 4.096-1.394 7.681-4.181 10.741-2.787 3.067-6.365 4.595-10.741 4.595-4.394 0-7.984-1.534-10.772-4.595-2.787-3.067-4.181-6.645-4.181-10.741 0-4.064 1.321-7.586 3.956-10.566 2.903-3.292 6.567-4.937 10.997-4.937zm-.012 3.696c-3.061 0-5.696 1.16-7.899 3.479-2.203 2.319-3.299 5.124-3.299 8.409 0 2.12.499 4.096 1.503 5.935 1.004 1.833 2.362 3.248 4.066 4.245 1.71.998 3.584 1.497 5.623 1.497 2.038 0 3.919-.499 5.623-1.497 1.71-.997 3.061-2.412 4.065-4.245 1.004-1.833 1.503-3.809 1.503-5.935 0-3.291-1.101-6.09-3.316-8.409-2.197-2.319-4.82-3.479-7.869-3.479z" fill="#1B7118"/></svg><svg viewBox="0 0 512 512" id="icon-home" xmlns="http://www.w3.org/2000/svg"><path d="M503.401 228.884l-43.253-39.411V58.79c0-8.315-6.741-15.057-15.057-15.057H340.976c-8.315 0-15.057 6.741-15.057 15.057v8.374l-52.236-47.597c-10.083-9.189-25.288-9.188-35.367-.001L8.598 228.885c-8.076 7.36-10.745 18.7-6.799 28.889 3.947 10.189 13.557 16.772 24.484 16.772h36.689v209.721c0 8.315 6.741 15.057 15.057 15.057h125.913c8.315 0 15.057-6.741 15.057-15.057V356.931H293v127.337c0 8.315 6.741 15.057 15.057 15.057h125.908c8.315 0 15.057-6.741 15.056-15.057V274.547h36.697c10.926 0 20.537-6.584 24.484-16.772 3.945-10.19 1.277-21.53-6.801-28.891zm-69.436 15.549c-8.315 0-15.057 6.741-15.057 15.057v209.721h-95.793V341.874c0-8.315-6.742-15.057-15.057-15.057H203.942c-8.315 0-15.057 6.741-15.057 15.057v127.337h-95.8V259.49c0-8.315-6.741-15.057-15.057-15.057H36.245l219.756-200.24 74.836 68.191a15.061 15.061 0 0016.224 2.644 15.06 15.06 0 008.973-13.774V73.847h74.002v122.276c0 4.237 1.784 8.276 4.916 11.13l40.803 37.18h-41.79z"/></svg><svg viewBox="0 0 512 512" id="icon-instagram" xmlns="http://www.w3.org/2000/svg"><path d="M305 256c0 27.063-21.938 49-49 49s-49-21.938-49-49 21.938-49 49-49 49 21.938 49 49zm0 0"/><path d="M370.594 169.305a45.546 45.546 0 00-10.996-16.903 45.514 45.514 0 00-16.903-10.996c-5.18-2.011-12.96-4.406-27.293-5.058-15.504-.707-20.152-.86-59.402-.86-39.254 0-43.902.149-59.402.856-14.332.656-22.118 3.05-27.293 5.062a45.483 45.483 0 00-16.903 10.996 45.572 45.572 0 00-11 16.903c-2.011 5.18-4.406 12.965-5.058 27.297-.707 15.5-.86 20.148-.86 59.402 0 39.25.153 43.898.86 59.402.652 14.332 3.047 22.114 5.058 27.293a45.563 45.563 0 0010.996 16.903 45.514 45.514 0 0016.903 10.996c5.18 2.015 12.965 4.41 27.297 5.062 15.5.707 20.144.856 59.398.856 39.258 0 43.906-.149 59.402-.856 14.332-.652 22.118-3.047 27.297-5.062a48.68 48.68 0 0027.899-27.899c2.011-5.18 4.406-12.96 5.062-27.293.707-15.504.856-20.152.856-59.402 0-39.254-.149-43.902-.856-59.402-.652-14.332-3.047-22.118-5.062-27.297zM256 331.485c-41.691 0-75.488-33.794-75.488-75.485s33.797-75.484 75.488-75.484c41.688 0 75.484 33.793 75.484 75.484S297.688 331.484 256 331.484zm78.469-136.313c-9.742 0-17.64-7.899-17.64-17.64s7.898-17.641 17.64-17.641 17.64 7.898 17.64 17.64c-.004 9.742-7.898 17.64-17.64 17.64zm0 0"/><path d="M256 0C114.637 0 0 114.637 0 256s114.637 256 256 256 256-114.637 256-256S397.363 0 256 0zm146.113 316.605c-.71 15.649-3.199 26.333-6.832 35.684a75.164 75.164 0 01-42.992 42.992c-9.348 3.633-20.035 6.117-35.68 6.832-15.675.715-20.683.887-60.605.887-39.926 0-44.93-.172-60.61-.887-15.644-.715-26.331-3.199-35.68-6.832a72.018 72.018 0 01-26.038-16.957 72.044 72.044 0 01-16.953-26.035c-3.633-9.348-6.121-20.035-6.832-35.68-.723-15.68-.891-20.687-.891-60.609s.168-44.93.887-60.605c.71-15.649 3.195-26.332 6.828-35.684a72.013 72.013 0 0116.96-26.035 72.003 72.003 0 0126.036-16.957c9.352-3.633 20.035-6.117 35.684-6.832C211.07 109.172 216.078 109 256 109s44.93.172 60.605.89c15.649.712 26.332 3.196 35.684 6.825a72.061 72.061 0 0126.04 16.96 72.027 72.027 0 0116.952 26.036c3.637 9.352 6.121 20.035 6.836 35.684.715 15.675.883 20.683.883 60.605s-.168 44.93-.887 60.605zm0 0"/></svg><svg viewBox="0 0 512 512" id="icon-linkedin" xmlns="http://www.w3.org/2000/svg"><path d="M256 0C114.637 0 0 114.637 0 256s114.637 256 256 256 256-114.637 256-256S397.363 0 256 0zm-74.39 387h-62.348V199.426h62.347zm-31.173-213.188h-.406c-20.922 0-34.453-14.402-34.453-32.402 0-18.406 13.945-32.41 35.274-32.41 21.328 0 34.453 14.004 34.859 32.41 0 18-13.531 32.403-35.274 32.403zM406.423 387h-62.34V286.652c0-25.218-9.027-42.418-31.586-42.418-17.223 0-27.48 11.602-31.988 22.801-1.649 4.008-2.051 9.61-2.051 15.215V387h-62.344s.817-169.977 0-187.574h62.344v26.558c8.285-12.78 23.11-30.96 56.188-30.96 41.02 0 71.777 26.808 71.777 84.421zm0 0"/></svg><svg viewBox="0 0 512 512" id="icon-lock" xmlns="http://www.w3.org/2000/svg"><path d="M405.333 170.667v-21.333C405.333 67.008 338.347 0 256 0S106.667 67.008 106.667 149.333v21.333c-35.285 0-64 28.715-64 64V448c0 35.285 28.715 64 64 64h298.667c35.285 0 64-28.715 64-64V234.667c-.001-35.286-28.715-64-64.001-64zm-256-21.334c0-58.816 47.851-106.667 106.667-106.667s106.667 47.851 106.667 106.667v21.333H149.333v-21.333zM426.667 448c0 11.776-9.579 21.333-21.333 21.333H106.667c-11.755 0-21.333-9.557-21.333-21.333V234.667c0-11.776 9.579-21.333 21.333-21.333h298.667c11.755 0 21.333 9.557 21.333 21.333V448z"/><path d="M256 245.333c-35.285 0-64 28.715-64 64 0 27.776 17.899 51.243 42.667 60.075v35.925c0 11.797 9.557 21.333 21.333 21.333 11.776 0 21.333-9.536 21.333-21.333v-35.925C302.101 360.576 320 337.109 320 309.333c0-35.285-28.715-64-64-64zm0 85.334c-11.755 0-21.333-9.557-21.333-21.333S244.245 288 256 288c11.755 0 21.333 9.557 21.333 21.333s-9.578 21.334-21.333 21.334z"/></svg><svg viewBox="0 0 509.942 509.942" id="icon-mail" xmlns="http://www.w3.org/2000/svg"><path d="M408.192 206.887a7.112 7.112 0 100 14.224 7.112 7.112 0 000-14.224zM408.296 86.587a7.5 7.5 0 00-7.5 7.5v91.047a7.5 7.5 0 0015 0V94.087a7.5 7.5 0 00-7.5-7.5z"/><path d="M509.942 157.599c0-56.105-45.645-101.75-101.75-101.75-51.354 0-93.937 38.244-100.782 87.745H32.5c-17.92 0-32.5 14.58-32.5 32.5v245.5c0 17.92 14.58 32.5 32.5 32.5h33.87a7.5 7.5 0 000-15H32.5c-.8 0-1.582-.073-2.353-.177l120.428-133.252 26.053 25.383c10.965 10.677 24.75 16.556 38.817 16.556s27.852-5.879 38.819-16.558l29.383-28.628 122.05 135.057a17.37 17.37 0 01-7.307 1.619H101.37a7.5 7.5 0 000 15h297.02c17.92 0 32.5-14.58 32.5-32.5v-99.39a7.5 7.5 0 00-15 0v99.39c0 1.45-.197 2.852-.531 4.2L294.398 291.942l53.682-52.303c16.854 12.383 37.642 19.709 60.112 19.709 2.589 0 5.156-.099 7.698-.29v28.145a7.5 7.5 0 0015 0v-30.41c45.216-10.341 79.052-50.889 79.052-99.194zM17.492 430.547A17.357 17.357 0 0115 421.594v-245.5c0-.798.072-1.577.176-2.346L139.823 295.19zM243.798 320.3c-16.959 16.511-39.748 16.512-56.705.001L23.626 161.037a17.366 17.366 0 018.874-2.443h273.955c.269 27.833 11.765 53.027 30.173 71.261zm164.394-75.951c-47.834 0-86.75-38.916-86.75-86.75s38.916-86.75 86.75-86.75 86.75 38.916 86.75 86.75-38.916 86.75-86.75 86.75z"/></svg><svg fill="none" viewBox="0 0 40 25" id="icon-mastercard" xmlns="http://www.w3.org/2000/svg"><path d="M24.99 12.5c0 6.905-5.593 12.5-12.495 12.5C5.593 25 0 19.404 0 12.5S5.595 0 12.495 0c6.9 0 12.495 5.596 12.495 12.5z" fill="#26A6D1"/><path d="M27.501 0C24.7 0 22.12.934 20.034 2.493h.01c.41.397.863.676 1.212 1.132l-2.6.041c-.408.412-.779.859-1.129 1.324h4.585c.348.419.67.783.963 1.245h-6.379c-.234.403-.45.816-.639 1.246h7.745c.202.429.383.753.537 1.207H15.6c-.14.43-.258.872-.348 1.322h9.454c.093.433.164.832.213 1.24h-9.854c-.042.411-.063.829-.063 1.25h9.988c0 .443-.031.852-.076 1.25h-9.85c.043.424.106.84.188 1.25h9.44c-.098.405-.21.813-.352 1.235h-8.77c.133.428.295.843.47 1.248h7.763c-.215.455-.459.818-.728 1.245h-6.4c.252.437.53.854.833 1.255l4.605.068c-.393.471-.896.755-1.355 1.168.025.02-.734-.003-2.228-.027A12.452 12.452 0 0027.502 25C34.404 25 40 19.404 40 12.5S34.406 0 27.501 0z" fill="#E2574C"/></svg><svg viewBox="0 0 512 512" id="icon-media" xmlns="http://www.w3.org/2000/svg"><path d="M473.885 212.673c-7.358-3.803-16.408-.918-20.211 6.441l-17.455 33.783-16.803-33.605a14.998 14.998 0 00-26.832 0L376 252.459l-16.584-33.167a14.996 14.996 0 00-14.334-8.264l-.908.056c-6.684.41-12.072 5.138-13.626 11.303-1.022-4.108-3.757-7.763-7.84-9.804-7.407-3.703-16.419-.702-20.124 6.708L286 252.459l-16.583-33.167a15.001 15.001 0 00-26.834 0L226 252.459l-16.583-33.167c-3.705-7.409-12.716-10.413-20.125-6.708-4.083 2.041-6.818 5.696-7.84 9.803-1.553-6.165-6.942-10.894-13.626-11.304l-.908-.056a14.995 14.995 0 00-14.334 8.264L136 252.459l-16.583-33.167c-5.461-10.895-21.253-11.161-26.833 0l-16.803 33.606-17.455-33.782c-3.802-7.36-12.851-10.243-20.211-6.441-7.36 3.803-10.244 12.852-6.441 20.212l31 60c5.627 10.892 21.255 10.798 26.743-.177L106 259.541l16.584 33.167c5.524 11.047 21.322 11.022 26.833 0l27.949-55.9a14.956 14.956 0 004.097-7.135 15.055 15.055 0 001.121 3.035l30 60c5.524 11.047 21.322 11.022 26.833 0L256 259.541l16.583 33.167c5.524 11.047 21.323 11.023 26.833 0l30-60.001c.494-.988.86-2.005 1.121-3.034a14.951 14.951 0 004.098 7.137l27.949 55.898c5.522 11.047 21.323 11.022 26.832 0L406 259.541l16.584 33.167c5.481 10.965 21.11 11.078 26.742.177l31-60.001c3.803-7.36.919-16.409-6.441-20.211z"/><path d="M493.032 159.329C454.912 66.291 362.617 0 256 0 149.356 0 57.078 66.314 18.969 159.328 7.501 167.492 0 180.882 0 196v120c0 15.118 7.501 28.508 18.969 36.672C57.087 445.707 149.381 512 256 512c106.644 0 198.921-66.314 237.032-159.329C504.499 344.507 512 331.117 512 316V196c0-15.117-7.501-28.507-18.968-36.671zM456.045 151h-76.687c-9.533-40.845-24.413-76.012-43.344-102.258a178.523 178.523 0 00-4.015-5.345C384.608 62.44 429.425 100.687 456.045 151zM271 32.512C312.045 46.293 337.711 108.43 348.486 151H271V32.512zm-30 0V151h-77.487c8.616-34.039 21.198-63.073 36.804-84.708 9.376-12.998 23.322-27.951 40.683-33.78zm-60.999 10.885a177.248 177.248 0 00-4.015 5.345C157.055 74.988 142.174 110.155 132.642 151H55.955c26.62-50.313 71.436-88.56 124.046-107.603zM55.955 361h76.687c8.73 37.405 23.727 77.315 47.359 107.603C127.391 449.56 82.575 411.313 55.955 361zM241 479.488C199.955 465.707 174.288 403.57 163.513 361H241v118.488zm30 0V360.8h77.487C337.695 403.433 311.958 465.736 271 479.488zm60.999-10.885c23.629-30.284 38.628-70.39 47.359-107.803h76.687c-26.62 50.313-71.436 88.76-124.046 107.803zM482 316c0 8.271-6.729 15-15 15H45c-8.271 0-15-6.729-15-15V196c0-8.271 6.729-15 15-15h422c8.271 0 15 6.729 15 15v120z"/></svg><svg fill="none" viewBox="0 0 325 250" id="icon-mobile" xmlns="http://www.w3.org/2000/svg"><path d="M154.214 240.436c-1.447-1.441-2.166-3.198-2.166-5.263V33.554c0-2.268.719-4.126 2.166-5.574 1.439-1.44 3.196-2.168 5.258-2.168h80.137c24.956 0 44.655 5.784 59.094 17.342 14.437 11.565 21.658 28.39 21.658 50.483 0 15.281-3.766 27.981-11.294 38.095-7.531 10.12-17.588 17.449-30.165 21.989l45.172 78.973c.619 1.238.926 2.375.926 3.406 0 1.858-.673 3.406-2.01 4.647-1.343 1.237-2.839 1.858-4.485 1.858h-28.156c-3.509 0-6.189-.928-8.045-2.789-1.856-1.858-3.302-3.716-4.332-5.574l-39.913-73.399h-43.006s-39.4 81.041-40.839 79.593zm40.839-114.592h43.626c12.58 0 21.967-2.835 28.156-8.516 6.188-5.678 9.281-13.677 9.281-24 0-10.322-3.046-18.427-9.128-24.312-6.085-5.884-15.523-8.826-28.309-8.826h-43.626v65.654z" fill="#1B7118"/><path d="M138.478 24.07c62.327 0 112.854 50.577 112.854 112.965 0 62.389-50.527 112.965-112.854 112.965S25.623 199.424 25.623 137.035c0-62.388 50.524-112.964 112.855-112.964z" fill="#B80000"/><path d="M38.86 117.201c1.253-6.311 7.381-10.407 13.683-9.153 6.305 1.254 10.397 7.388 9.144 13.7-1.253 6.311-7.381 10.407-13.686 9.153-6.302-1.258-10.398-7.389-9.141-13.7zM102.504 129.874a4.23 4.23 0 118.301 1.651 4.232 4.232 0 11-8.301-1.651z" fill="#fff"/><path d="M48.737 131.148l57.363 3.762.443-6.761-56.7-13.91-1.106 16.909z" fill="#fff"/><path d="M53.316 108.101l54.436 18.494-2.176 6.421-57.698-8.87 5.438-16.045zM54.026 80.551c3.573-5.35 10.797-6.788 16.143-3.212 5.345 3.576 6.781 10.808 3.212 16.158-3.569 5.35-10.797 6.789-16.142 3.213-5.349-3.573-6.785-10.808-3.213-16.159zM107.979 116.637a4.228 4.228 0 015.869-1.167 4.236 4.236 0 011.166 5.874 4.229 4.229 0 01-5.869 1.168 4.24 4.24 0 01-1.166-5.875z" fill="#fff"/><path d="M57.819 97.22l51.556 25.452 2.996-6.081-47.064-34.569-7.488 15.198z" fill="#fff"/><path d="M70.862 77.683l43.219 37.94-4.463 5.094-49.917-30.295 11.16-12.74zM82.049 52.501c5.345-3.576 12.57-2.135 16.142 3.216 3.573 5.35 2.133 12.582-3.209 16.158-5.345 3.576-12.573 2.135-16.142-3.216-3.576-5.35-2.136-12.582 3.209-16.158zM118.1 106.51a4.226 4.226 0 015.868 1.168 4.235 4.235 0 01-1.166 5.874 4.227 4.227 0 01-5.869-1.168 4.236 4.236 0 011.167-5.874z" fill="#fff"/><path d="M79.18 69.357l37.903 43.261 5.092-4.47-30.269-49.966L79.18 69.357z" fill="#fff"/><path d="M98.702 56.3l25.423 51.608-6.072 2.999-34.534-47.111L98.702 56.3zM118.66 37.32c6.305-1.254 12.43 2.842 13.686 9.154 1.256 6.31-2.839 12.442-9.144 13.7-6.305 1.254-12.43-2.843-13.687-9.154-1.253-6.311 2.843-12.446 9.145-13.7zM131.319 101.026a4.232 4.232 0 014.976 3.329 4.235 4.235 0 01-3.326 4.98 4.23 4.23 0 01-4.975-3.329 4.239 4.239 0 013.325-4.98z" fill="#fff"/><path d="M109.568 51.794l18.479 54.489 6.412-2.181-8.861-57.755-16.03 5.447z" fill="#fff"/><path d="M132.596 47.21l3.759 57.419-6.758.443-13.893-56.754 16.892-1.107zM158.293 37.32c6.305 1.254 10.397 7.389 9.144 13.7-1.253 6.311-7.381 10.408-13.686 9.153-6.305-1.254-10.398-7.388-9.145-13.7 1.253-6.31 7.382-10.407 13.687-9.153zM145.633 101.026a4.234 4.234 0 013.325 4.98 4.23 4.23 0 01-4.975 3.329 4.235 4.235 0 01-3.326-4.98 4.232 4.232 0 014.976-3.329z" fill="#fff"/><path d="M144.36 47.21l-3.763 57.419 6.758.443 13.894-56.754-16.889-1.107z" fill="#fff"/><path d="M167.384 51.794l-18.479 54.489-6.411-2.181 8.861-57.755 16.029 5.447zM194.907 52.501c5.345 3.576 6.781 10.808 3.209 16.158-3.572 5.35-10.797 6.789-16.142 3.216-5.346-3.576-6.782-10.808-3.21-16.158 3.569-5.35 10.798-6.788 16.143-3.216zM158.853 106.51a4.24 4.24 0 011.166 5.878 4.227 4.227 0 01-5.868 1.167 4.237 4.237 0 01-1.167-5.874 4.225 4.225 0 015.869-1.171z" fill="#fff"/><path d="M178.251 56.3l-25.423 51.608 6.071 2.999 34.535-47.111-15.183-7.495z" fill="#fff"/><path d="M197.773 69.357l-37.904 43.261-5.092-4.47 30.269-49.966 12.727 11.175zM222.929 80.551c3.573 5.35 2.133 12.586-3.212 16.159-5.345 3.576-12.57 2.135-16.143-3.213-3.572-5.35-2.132-12.582 3.213-16.158 5.342-3.576 12.57-2.138 16.142 3.212zM168.973 116.637a4.236 4.236 0 01-1.166 5.875 4.227 4.227 0 01-5.868-1.168 4.235 4.235 0 011.166-5.874 4.227 4.227 0 015.868 1.167z" fill="#fff"/><path d="M206.091 77.683l-43.219 37.94 4.462 5.094 49.917-30.295-11.16-12.74z" fill="#fff"/><path d="M219.134 97.22l-51.557 25.452-2.996-6.081 47.065-34.569 7.488 15.198zM238.092 117.201c1.253 6.311-2.839 12.442-9.144 13.7-6.305 1.254-12.43-2.842-13.686-9.153-1.254-6.312 2.839-12.443 9.144-13.7 6.305-1.258 12.433 2.842 13.686 9.153zM174.449 129.874a4.232 4.232 0 11-8.302 1.651 4.232 4.232 0 118.302-1.651z" fill="#fff"/><path d="M223.636 108.101L169.2 126.595l2.176 6.421 57.699-8.87-5.439-16.045z" fill="#fff"/><path d="M228.215 131.148l-57.362 3.762-.443-6.761 56.698-13.91 1.107 16.909zM238.092 156.87c-1.253 6.311-7.381 10.407-13.686 9.153-6.305-1.254-10.398-7.389-9.144-13.697 1.253-6.311 7.381-10.407 13.686-9.153 6.305 1.254 10.401 7.385 9.144 13.697zM174.449 144.197a4.232 4.232 0 11-8.302-1.651 4.232 4.232 0 118.302 1.651z" fill="#fff"/><path d="M228.215 142.923l-57.362-3.763-.443 6.762 56.698 13.91 1.107-16.909z" fill="#fff"/><path d="M223.636 165.969L169.2 147.476l2.176-6.418 57.699 8.867-5.439 16.044zM222.929 193.519c-3.572 5.351-10.797 6.789-16.142 3.216-5.345-3.573-6.782-10.808-3.213-16.158 3.569-5.351 10.798-6.789 16.143-3.216 5.345 3.576 6.781 10.808 3.212 16.158zM168.973 157.433a4.23 4.23 0 01-5.872 1.168 4.237 4.237 0 01-1.166-5.874 4.228 4.228 0 015.869-1.168 4.236 4.236 0 011.169 5.874z" fill="#fff"/><path d="M219.134 176.851l-51.557-25.452-2.996 6.081 47.065 34.568 7.488-15.197z" fill="#fff"/><path d="M206.091 196.388l-43.219-37.937 4.462-5.097 49.917 30.295-11.16 12.739zM194.907 221.57c-5.345 3.575-12.573 2.134-16.143-3.216-3.572-5.351-2.132-12.583 3.21-16.158 5.345-3.576 12.57-2.135 16.142 3.215 3.573 5.351 2.133 12.583-3.209 16.159zM158.853 167.561a4.231 4.231 0 01-5.872-1.168 4.235 4.235 0 011.166-5.874 4.228 4.228 0 015.869 1.167 4.234 4.234 0 01-1.163 5.875z" fill="#fff"/><path d="M197.773 204.714l-37.904-43.261-5.092 4.47 30.269 49.966 12.727-11.175z" fill="#fff"/><path d="M178.251 217.77l-25.423-51.607 6.071-2.996 34.535 47.111-15.183 7.492zM158.293 236.75c-6.305 1.255-12.43-2.842-13.687-9.153-1.253-6.311 2.84-12.442 9.145-13.7 6.305-1.254 12.43 2.842 13.686 9.154 1.253 6.311-2.843 12.445-9.144 13.699zM145.633 173.045a4.232 4.232 0 01-4.976-3.33 4.236 4.236 0 013.326-4.98 4.229 4.229 0 014.975 3.329 4.24 4.24 0 01-3.325 4.981z" fill="#fff"/><path d="M167.384 222.277l-18.479-54.486-6.411 2.178 8.861 57.755 16.029-5.447z" fill="#fff"/><path d="M144.36 226.86l-3.763-57.418 6.758-.44 13.894 56.751-16.889 1.107zM118.659 236.75c-6.305-1.254-10.397-7.388-9.144-13.696 1.253-6.311 7.382-10.408 13.687-9.153 6.305 1.254 10.397 7.388 9.144 13.7-1.253 6.311-7.381 10.404-13.687 9.149zM131.32 173.045a4.235 4.235 0 01-3.326-4.981 4.234 4.234 0 014.975-3.329 4.235 4.235 0 013.326 4.981 4.23 4.23 0 01-4.975 3.329z" fill="#fff"/><path d="M132.596 226.86l3.759-57.418-6.758-.44-13.893 56.751 16.892 1.107z" fill="#fff"/><path d="M109.568 222.277l18.479-54.486 6.412 2.178-8.861 57.755-16.03-5.447zM82.049 221.57c-5.346-3.576-6.782-10.808-3.213-16.159 3.57-5.35 10.797-6.788 16.143-3.215 5.345 3.575 6.781 10.807 3.209 16.158-3.57 5.35-10.797 6.791-16.14 3.216zM118.1 167.561a4.238 4.238 0 01-1.167-5.875 4.228 4.228 0 015.869-1.167 4.236 4.236 0 011.166 5.874 4.226 4.226 0 01-5.868 1.168z" fill="#fff"/><path d="M98.702 217.77l25.423-51.607-6.072-2.996-34.534 47.111 15.183 7.492z" fill="#fff"/><path d="M79.18 204.714l37.903-43.261 5.092 4.47-30.269 49.966-12.726-11.175zM54.026 193.519c-3.572-5.35-2.132-12.582 3.21-16.158 5.345-3.576 12.573-2.135 16.142 3.216 3.573 5.35 2.133 12.582-3.212 16.158-5.342 3.573-12.57 2.135-16.14-3.216zM107.979 157.433a4.235 4.235 0 011.166-5.874 4.227 4.227 0 015.869 1.168 4.236 4.236 0 01-1.167 5.874 4.227 4.227 0 01-5.868-1.168z" fill="#fff"/><path d="M70.862 196.388l43.219-37.937-4.463-5.097-49.917 30.295 11.16 12.739z" fill="#fff"/><path d="M57.819 176.851l51.556-25.452 2.996 6.081-47.064 34.568-7.488-15.197zM38.86 156.87c-1.253-6.312 2.84-12.443 9.144-13.7 6.305-1.254 12.43 2.842 13.687 9.153 1.253 6.311-2.84 12.442-9.145 13.697-6.308 1.257-12.433-2.839-13.686-9.15zM102.504 144.197a4.232 4.232 0 118.301-1.651 4.235 4.235 0 01-3.326 4.98 4.23 4.23 0 01-4.975-3.329z" fill="#fff"/><path d="M53.316 165.973l54.436-18.497-2.176-6.418-57.698 8.867 5.438 16.048z" fill="#fff"/><path d="M48.737 142.923l57.363-3.763.443 6.762-56.7 13.91-1.106-16.909z" fill="#fff"/><path d="M22.211 148.362L.66 150.688l.232 2.156 21.552-2.326-.232-2.156zM.01 134.884l21.814-9.824-.033 2.342-7.178 3.315-.127 9.347 7.085 3.476-.033 2.418L0 135.411l.01-.527zm4.602.337l7.795 3.826.1-7.419-7.895 3.593zM2.76 109.662l23.25-5.63-.463 2.295-7.665 1.934-1.846 9.164 6.325 4.723-.477 2.372-19.228-14.337.103-.521zm4.462 1.181l6.958 5.197 1.463-7.272-8.421 2.075zM10.264 83.49l1.063-.78c.527.65.956 1.117 1.286 1.407.334.29.79.607 1.37.944l.54-1.197 3.692 1.67-1.1 2.433-2.309-1.048c-1.153-.523-2.026-1.01-2.613-1.468-.583-.447-1.23-1.104-1.93-1.96zm2.703-5.98l1.063-.781c.526.65.956 1.117 1.29 1.407.332.29.79.607 1.369.944l.54-1.197 3.692 1.67-1.1 2.433-2.309-1.048c-1.153-.523-2.026-1.01-2.616-1.46-.587-.444-1.23-1.102-1.93-1.969zM17.742 69.343l2.313-3.65c1.29-2.034 2.246-3.358 2.872-3.975.94-.93 2.033-1.475 3.283-1.635 1.25-.16 2.473.137 3.67.898.995.633 1.722 1.424 2.182 2.375.46.95.603 1.981.436 3.098-.166 1.118-.733 2.449-1.7 3.99l12.678-1.19-1.437 2.264-12.677 1.191-.656 1.034 8.498 5.4-1.16 1.832-18.302-11.632zm2.953-.694l6.221 3.953 2.027-3.139c.776-1.224 1.233-2.201 1.373-2.935a3.34 3.34 0 00-.244-2.082 3.65 3.65 0 00-1.4-1.577 3.508 3.508 0 00-1.989-.564 3.277 3.277 0 00-1.906.627c-.56.404-1.236 1.234-2.033 2.488l-2.05 3.23zM38.117 50.086c1.64-1.851 3.666-2.789 6.082-2.819 2.2-.023 4.135.708 5.802 2.189 1.676 1.487 2.622 3.372 2.842 5.654.22 2.281-.486 4.34-2.11 6.174-1.632 1.845-3.592 2.792-5.881 2.849-2.29.057-4.272-.66-5.945-2.145-1.663-1.474-2.613-3.306-2.856-5.494-.27-2.415.42-4.55 2.066-6.408zm1.506 1.348c-1.14 1.284-1.643 2.808-1.51 4.573.13 1.765.87 3.246 2.213 4.437a6.496 6.496 0 002.986 1.52c1.123.244 2.206.19 3.246-.163 1.043-.353 1.943-.96 2.703-1.818a6.252 6.252 0 001.476-2.902c.227-1.077.15-2.161-.227-3.245a6.533 6.533 0 00-1.866-2.786c-1.346-1.194-2.902-1.748-4.672-1.661-1.77.087-3.219.767-4.349 2.045zM48.154 39.762l1.646-1.244 1.67 2.211c-.043-1.247.097-2.291.417-3.125.453-1.131 1.14-2.045 2.056-2.739.62-.467 1.3-.79 2.043-.97.74-.177 1.44-.197 2.1-.06.659.136 1.399.483 2.229 1.04-.21-1.418-.104-2.699.326-3.843a6.089 6.089 0 012.06-2.788c.883-.668 1.832-1.035 2.845-1.098 1.014-.063 1.987.18 2.92.734.933.55 2.003 1.628 3.212 3.229l5.276 6.992-1.683 1.27-5.276-6.991c-1.036-1.374-1.846-2.242-2.429-2.609a3.187 3.187 0 00-1.94-.483c-.71.043-1.392.313-2.049.81a4.615 4.615 0 00-1.653 2.359 5.122 5.122 0 00-.027 2.978c.287 1.014 1.123 2.442 2.51 4.277l3.785 5.013-1.646 1.245-4.949-6.555c-1.166-1.548-2.056-2.522-2.662-2.932a3.317 3.317 0 00-2.01-.57c-.73.026-1.423.29-2.082.79-.76.574-1.3 1.341-1.613 2.302-.317.96-.34 1.948-.07 2.965.27 1.018 1.006 2.325 2.216 3.926l4.095 5.428-1.646 1.244-9.67-12.806zM87.594 15.368l6.865 14.504-1.836.87-1.18-2.492c-.33 1.321-.87 2.452-1.613 3.393-.743.94-1.696 1.684-2.849 2.231-2.05.974-4.155 1.061-6.312.26-2.156-.8-3.739-2.268-4.748-4.4-.99-2.087-1.104-4.222-.34-6.4.763-2.179 2.172-3.757 4.232-4.734 1.19-.564 2.386-.82 3.589-.774 1.203.05 2.41.407 3.616 1.078l-1.263-2.666 1.84-.87zM80.82 20.33a6.234 6.234 0 00-2.51 2.128 6.198 6.198 0 00-1.075 3.146c-.08 1.171.12 2.268.61 3.3a6.48 6.48 0 002.172 2.554c.967.684 2.013 1.078 3.14 1.178 1.13.1 2.199-.09 3.209-.567a6.425 6.425 0 002.532-2.148c.67-.948 1.043-1.979 1.12-3.09.077-1.11-.147-2.218-.667-3.318-.793-1.678-2.009-2.82-3.649-3.423-1.642-.607-3.269-.527-4.882.24zM92.576 7.569l2.087-.584 3.529 12.616c.42 1.498.706 2.422.866 2.775.333.794.77 1.418 1.303 1.865.533.447 1.246.747 2.136.904.89.153 1.733.12 2.526-.104a4.858 4.858 0 001.863-.997 4.59 4.59 0 001.246-1.668c.28-.64.417-1.358.407-2.151-.007-.57-.24-1.678-.7-3.326L104.31 4.283l2.086-.584 3.526 12.616c.523 1.865.763 3.426.72 4.677-.044 1.254-.49 2.458-1.347 3.616-.853 1.157-2.056 1.954-3.609 2.388-1.683.47-3.239.474-4.665.007-1.426-.467-2.53-1.308-3.306-2.519-.483-.744-1.023-2.175-1.616-4.296l-3.523-12.62zM123.322 1.2l12.163 20.619-2.329.227-4.086-6.775-9.294.907-2.669 7.432-2.406.234 8.094-22.593.527-.05zm.173 4.614l-2.936 8.18 7.378-.721-4.442-7.459zM140.307 8.166l-1.096-.714c.413-.724.697-1.294.85-1.711.15-.414.276-.954.373-1.618l-1.296-.073.226-4.05 2.663.15-.143 2.532c-.07 1.268-.214 2.255-.427 2.969-.21.71-.593 1.55-1.15 2.515zm6.549.367l-1.097-.71c.414-.725.697-1.295.85-1.712.15-.414.277-.954.37-1.618l-1.296-.073.226-4.05 2.663.15-.143 2.532c-.07 1.268-.214 2.255-.427 2.969-.207.71-.59 1.551-1.146 2.512z" fill="#1B7118"/></svg><svg viewBox="0 0 492 492" id="icon-pagination-left" xmlns="http://www.w3.org/2000/svg"><path d="M198.608 246.104L382.664 62.04c5.068-5.056 7.856-11.816 7.856-19.024 0-7.212-2.788-13.968-7.856-19.032l-16.128-16.12C361.476 2.792 354.712 0 347.504 0s-13.964 2.792-19.028 7.864L109.328 227.008c-5.084 5.08-7.868 11.868-7.848 19.084-.02 7.248 2.76 14.028 7.848 19.112l218.944 218.932c5.064 5.072 11.82 7.864 19.032 7.864 7.208 0 13.964-2.792 19.032-7.864l16.124-16.12c10.492-10.492 10.492-27.572 0-38.06L198.608 246.104z"/></svg><svg viewBox="0 0 492.004 492.004" id="icon-pagination-right" xmlns="http://www.w3.org/2000/svg"><path d="M382.678 226.804L163.73 7.86C158.666 2.792 151.906 0 144.698 0s-13.968 2.792-19.032 7.86l-16.124 16.12c-10.492 10.504-10.492 27.576 0 38.064L293.398 245.9l-184.06 184.06c-5.064 5.068-7.86 11.824-7.86 19.028 0 7.212 2.796 13.968 7.86 19.04l16.124 16.116c5.068 5.068 11.824 7.86 19.032 7.86s13.968-2.792 19.032-7.86L382.678 265c5.076-5.084 7.864-11.872 7.848-19.088.016-7.244-2.772-14.028-7.848-19.108z"/></svg><svg fill="none" viewBox="0 0 22 20" id="icon-search" xmlns="http://www.w3.org/2000/svg"><path d="M14.978 7.86c0 3.773-3.114 6.86-6.989 6.86S1 11.632 1 7.86C1 4.086 4.114 1 7.989 1s6.989 3.086 6.989 6.86z" stroke="#fff" stroke-width="2"/><path transform="matrix(.75788 .6524 -.66458 .74721 11.983 13.1)" stroke="#fff" stroke-width="2" d="M0-1h10.578"/></svg><svg viewBox="0 0 512 512" id="icon-twitter" xmlns="http://www.w3.org/2000/svg"><path d="M256 0C114.637 0 0 114.637 0 256s114.637 256 256 256 256-114.637 256-256S397.363 0 256 0zm116.887 199.602c.113 2.52.168 5.05.168 7.593 0 77.645-59.102 167.18-167.184 167.184h.004-.004c-33.184 0-64.062-9.727-90.066-26.395 4.597.543 9.277.813 14.015.813 27.532 0 52.868-9.39 72.98-25.152-25.722-.477-47.41-17.465-54.894-40.813a58.481 58.481 0 0011.043 1.063c5.363 0 10.559-.723 15.496-2.07-26.886-5.384-47.14-29.145-47.14-57.598 0-.266 0-.504.007-.75a58.354 58.354 0 0026.614 7.347c-15.778-10.527-26.149-28.523-26.149-48.91a58.597 58.597 0 017.957-29.535c28.977 35.555 72.282 58.937 121.118 61.394a58.708 58.708 0 01-1.528-13.398c0-32.437 26.317-58.754 58.766-58.754 16.902 0 32.168 7.145 42.89 18.567a117.855 117.855 0 0037.313-14.262c-4.395 13.715-13.707 25.222-25.84 32.5 11.887-1.422 23.215-4.574 33.742-9.254a119.412 119.412 0 01-29.308 30.43zm0 0"/></svg><svg fill="none" viewBox="0 0 45 35" id="icon-video" xmlns="http://www.w3.org/2000/svg"><path d="M22.498 35h-.012c-1.358-.01-13.361-.128-16.762-1.118C3.347 33.194 1.47 31.177.83 28.62-.06 25.023-.003 18.1.003 17.547c-.006-.55-.063-7.53.824-11.155l.003-.01c.633-2.53 2.552-4.61 4.888-5.3l.018-.004C9.098.126 21.126.01 22.486 0h.025c1.361.01 13.397.128 16.767 1.12 2.37.685 4.245 2.7 4.888 5.255.923 3.628.837 10.623.828 11.214.006.581.06 7.442-.824 11.056l-.003.01c-.64 2.559-2.517 4.576-4.896 5.264l-.01.004c-3.362.95-15.39 1.067-16.75 1.077h-.013zM4.225 7.362c-.781 3.2-.707 10.091-.707 10.16v.05c-.023 1.912.06 7.446.708 10.068.314 1.255 1.24 2.25 2.413 2.589 2.51.73 12.286.96 15.86.987 3.582-.027 13.373-.25 15.864-.952 1.17-.34 2.092-1.331 2.408-2.588.65-2.66.731-8.168.707-10.067v-.06c.033-1.933-.03-7.533-.703-10.175l-.002-.008c-.316-1.26-1.242-2.255-2.415-2.595-2.485-.731-12.278-.96-15.86-.987-3.58.027-13.361.25-15.86.95-1.15.344-2.097 1.374-2.413 2.628zM42.47 28.163zm-24.452-3.001V9.838L30.322 17.5l-12.304 7.662z" fill="#fff"/></svg><svg fill="none" viewBox="0 0 75 25" id="icon-visa" xmlns="http://www.w3.org/2000/svg"><path d="M30.656 0l-3.764 24.95h6.017L36.67 0h-6.014zm18.148 10.163c-2.102-1.106-3.391-1.852-3.391-2.983.025-1.029 1.09-2.082 3.466-2.082 1.955-.053 3.392.437 4.481.924l.546.26.818-5.221c-1.188-.49-3.072-1.028-5.4-1.028-5.941 0-10.125 3.29-10.15 7.996-.05 3.473 2.995 5.4 5.273 6.556 2.327 1.185 3.12 1.954 3.12 3.008-.026 1.618-1.882 2.364-3.614 2.364-2.4 0-3.69-.384-5.646-1.286l-.793-.384-.841 5.425c1.413.669 4.012 1.258 6.71 1.288 6.314 0 10.423-3.24 10.475-8.256.02-2.751-1.585-4.858-5.054-6.58zM70.148.077h-4.654c-1.435 0-2.525.44-3.146 2.007L53.412 24.95h6.314L61.465 20h7.064l.902 4.97H75L70.148.077zm-6.932 14.927c.122.012 2.423-8.082 2.423-8.082l1.833 8.082h-4.256zM21.865 0L15.97 16.951l-.642-3.343c-1.09-3.857-4.507-8.048-8.32-10.13l5.398 21.447h6.365L28.231.003h-6.366V0z" fill="#0C7EE1"/><path d="M13.345 3.219C12.886 1.316 11.421.033 9.431.006H.096L0 .467C7.282 2.38 13.395 8.264 15.377 13.8l-2.032-10.58z" fill="#B80000"/></svg><svg viewBox="0 0 512 512" id="icon-youtube" xmlns="http://www.w3.org/2000/svg"><path d="M224.113 303.96L307.387 256l-83.274-47.96zm0 0"/><path d="M256 0C114.637 0 0 114.637 0 256s114.637 256 256 256 256-114.637 256-256S397.363 0 256 0zm159.96 256.262s0 51.918-6.585 76.953c-3.691 13.703-14.496 24.508-28.2 28.195C356.142 368 256 368 256 368s-99.879 0-125.176-6.852c-13.703-3.687-24.508-14.496-28.199-28.199-6.59-24.77-6.59-76.949-6.59-76.949s0-51.914 6.59-76.95c3.688-13.702 14.758-24.773 28.2-28.46C155.858 144 256 144 256 144s100.14 0 125.176 6.852c13.703 3.687 24.508 14.496 28.199 28.199 6.852 25.035 6.586 77.21 6.586 77.21zm0 0"/></svg></svg>