<svg id="Capa_1" enable-background="new 0 0 509.942 509.942" height="512" viewBox="0 0 509.942 509.942" width="512" xmlns="http://www.w3.org/2000/svg"><g><path d="m408.192 206.887c-3.928 0-7.112 3.184-7.112 7.112s3.184 7.112 7.112 7.112 7.112-3.184 7.112-7.112-3.184-7.112-7.112-7.112z"/><path d="m408.296 86.587c-4.142 0-7.5 3.358-7.5 7.5v91.047c0 4.142 3.358 7.5 7.5 7.5s7.5-3.358 7.5-7.5v-91.047c0-4.142-3.358-7.5-7.5-7.5z"/><path d="m509.942 157.599c0-56.105-45.645-101.75-101.75-101.75-51.354 0-93.937 38.244-100.782 87.745h-274.91c-17.92 0-32.5 14.58-32.5 32.5v245.5c0 17.92 14.58 32.5 32.5 32.5h33.87c4.142 0 7.5-3.358 7.5-7.5s-3.358-7.5-7.5-7.5h-33.87c-.8 0-1.582-.073-2.353-.177l120.428-133.252 26.053 25.383c10.965 10.677 24.75 16.556 38.817 16.556s27.852-5.879 38.819-16.558l29.383-28.628 122.05 135.057c-2.227 1.029-4.697 1.619-7.307 1.619h-297.02c-4.142 0-7.5 3.358-7.5 7.5s3.358 7.5 7.5 7.5h297.02c17.92 0 32.5-14.58 32.5-32.5v-99.39c0-4.142-3.358-7.5-7.5-7.5s-7.5 3.358-7.5 7.5v99.39c0 1.45-.197 2.852-.531 4.2l-120.961-133.852 53.682-52.303c16.854 12.383 37.642 19.709 60.112 19.709 2.589 0 5.156-.099 7.698-.29v28.145c0 4.142 3.358 7.5 7.5 7.5s7.5-3.358 7.5-7.5v-30.41c45.216-10.341 79.052-50.889 79.052-99.194zm-492.45 272.948c-1.572-2.623-2.492-5.679-2.492-8.953v-245.5c0-.798.072-1.577.176-2.346l124.647 121.442zm226.306-110.247c-16.959 16.511-39.748 16.512-56.705.001l-163.467-159.264c2.606-1.542 5.633-2.443 8.874-2.443h273.955c.269 27.833 11.765 53.027 30.173 71.261zm164.394-75.951c-47.834 0-86.75-38.916-86.75-86.75s38.916-86.75 86.75-86.75 86.75 38.916 86.75 86.75-38.916 86.75-86.75 86.75z"/></g></svg>