<svg width="75" height="25" viewBox="0 0 75 25" fill="none" xmlns="http://www.w3.org/2000/svg">
<path d="M30.6564 0L26.8923 24.9499H32.9087L36.6705 0C36.6705 0 30.6564 0 30.6564 0ZM48.8041 10.1632C46.7016 9.05728 45.4127 8.31088 45.4127 7.17978C45.4384 6.15136 46.5026 5.09775 48.8791 5.09775C50.8338 5.04545 52.2705 5.53475 53.3604 6.02157L53.9064 6.28114L54.7244 1.061C53.536 0.57171 51.6517 0.0325819 49.3244 0.0325819C43.383 0.0325819 39.1994 3.32293 39.1734 8.02886C39.1243 11.5016 42.1687 13.4286 44.447 14.5846C46.7743 15.7705 47.5666 16.5393 47.5666 17.593C47.5409 19.2106 45.6847 19.957 43.9526 19.957C41.5527 19.957 40.2636 19.5726 38.3066 18.6712L37.5144 18.2868L36.673 23.7117C38.0863 24.3809 40.6854 24.9699 43.3832 25C49.6973 25 53.8059 21.7595 53.8576 16.7442C53.8781 13.9929 52.2728 11.8857 48.8041 10.1632ZM70.1485 0.0772131H65.4938C64.0594 0.0772131 62.9695 0.516675 62.3484 2.0845L53.4116 24.9499H59.7257L61.4646 19.9995H68.5288L69.4311 24.9699H75L70.1485 0.0772131ZM63.2157 15.0036C63.3376 15.0162 65.6393 6.9224 65.6393 6.9224L67.4721 15.0036C67.4721 15.0036 64.4041 15.0036 63.2157 15.0036ZM21.865 0L15.9704 16.9512L15.3283 13.6082C14.2384 9.75111 10.8213 5.55966 7.00787 3.47763L12.4056 24.925H18.7713L28.2308 0.00273657H21.865V0Z" fill="#0C7EE1"/>
<path d="M13.3454 3.21872C12.886 1.3163 11.421 0.0332401 9.43142 0.00585938H0.0961393L0 0.467498C7.28217 2.37977 13.3945 8.26389 15.3774 13.7986L13.3454 3.21872Z" fill="#B80000"/>
</svg>
