<svg width="25" height="25" viewBox="0 0 25 25" fill="none" xmlns="http://www.w3.org/2000/svg">
<path d="M13.4567 19.8281C13.4569 19.828 13.4571 19.8278 13.4573 19.8276L16.8121 16.766C17.0635 16.5366 17.0625 16.1656 16.8099 15.9373C16.5574 15.709 16.1489 15.7099 15.8976 15.9393L13.6452 17.9949L13.6452 5.58594C13.6452 5.26232 13.3563 5 13 5C12.6437 5 12.3548 5.26232 12.3548 5.58594L12.3548 17.9948L10.1024 15.9393C9.8511 15.7099 9.44261 15.7091 9.19006 15.9373C8.93745 16.1656 8.93658 16.5367 9.18787 16.766L12.5427 19.8276C12.5429 19.8278 12.5431 19.828 12.5433 19.8282C12.7955 20.0576 13.2053 20.0569 13.4567 19.8281Z" fill="black"/>
<rect x="1" y="1" width="23" height="23" rx="3" stroke="#B80000" stroke-width="2"/>
</svg>
