<svg width="325" height="250" viewBox="0 0 325 250" fill="none" xmlns="http://www.w3.org/2000/svg">
<path d="M154.214 240.436C152.767 238.995 152.048 237.237 152.048 235.173V33.5542C152.048 31.2859 152.767 29.4279 154.214 27.9801C155.653 26.5391 157.41 25.8119 159.472 25.8119H239.609C264.565 25.8119 284.264 31.5961 298.703 43.1544C313.14 54.7194 320.361 71.5448 320.361 93.6374C320.361 108.918 316.595 121.618 309.067 131.732C301.536 141.852 291.479 149.181 278.902 153.721L324.074 232.694C324.693 233.932 325 235.069 325 236.1C325 237.958 324.327 239.506 322.99 240.747C321.647 241.984 320.151 242.605 318.505 242.605H290.349C286.84 242.605 284.16 241.677 282.304 239.816C280.448 237.958 279.002 236.1 277.972 234.242L238.059 160.842H195.053C195.053 160.842 155.653 241.884 154.214 240.436ZM195.053 125.844H238.679C251.259 125.844 260.646 123.009 266.835 117.328C273.023 111.65 276.116 103.651 276.116 93.3272C276.116 83.0064 273.07 74.9006 266.988 69.0164C260.903 63.1321 251.465 60.19 238.679 60.19H195.053V125.844Z" fill="white"/>
<path d="M138.478 24.0707C200.805 24.0707 251.332 74.6471 251.332 137.035C251.332 199.424 200.805 250 138.478 250C76.1506 250 25.6235 199.424 25.6235 137.035C25.6235 74.6471 76.1473 24.0707 138.478 24.0707Z" fill="#1B7118"/>
<path d="M38.8599 117.201C40.1129 110.89 46.2413 106.794 52.543 108.048C58.8481 109.302 62.9404 115.436 61.6873 121.748C60.4343 128.059 54.3059 132.155 48.0009 130.901C41.6991 129.643 37.6035 123.512 38.8599 117.201Z" fill="white"/>
<path d="M102.504 129.874C102.96 127.579 105.186 126.087 107.479 126.544C109.772 127.001 111.261 129.23 110.805 131.525C110.348 133.82 108.122 135.311 105.829 134.854C103.537 134.397 102.047 132.168 102.504 129.874Z" fill="white"/>
<path d="M48.7375 131.148L106.1 134.91L106.543 128.149L49.8439 114.239L48.7375 131.148Z" fill="white"/>
<path d="M53.3163 108.101L107.752 126.594L105.576 133.016L47.8777 124.146L53.3163 108.101Z" fill="white"/>
<path d="M54.0261 80.5513C57.5986 75.2008 64.8234 73.7631 70.1687 77.339C75.514 80.9149 76.9503 88.1468 73.3812 93.4973C69.8121 98.8478 62.5839 100.286 57.2387 96.7096C51.89 93.137 50.4537 85.9018 54.0261 80.5513Z" fill="white"/>
<path d="M107.979 116.637C109.279 114.693 111.905 114.169 113.848 115.47C115.79 116.771 116.314 119.399 115.014 121.344C113.714 123.289 111.088 123.812 109.145 122.512C107.203 121.214 106.683 118.585 107.979 116.637Z" fill="white"/>
<path d="M57.8186 97.22L109.375 122.672L112.371 116.591L65.3067 82.0224L57.8186 97.22Z" fill="white"/>
<path d="M70.8616 77.6826L114.081 115.623L109.618 120.717L59.7012 90.4218L70.8616 77.6826Z" fill="white"/>
<path d="M82.049 52.5011C87.3943 48.9252 94.6191 50.3663 98.1915 55.7168C101.764 61.0673 100.324 68.2992 94.9823 71.8751C89.637 75.451 82.4089 74.0099 78.8398 68.6594C75.264 63.3089 76.7037 56.077 82.049 52.5011Z" fill="white"/>
<path d="M118.1 106.51C120.043 105.209 122.672 105.733 123.968 107.678C125.268 109.622 124.745 112.254 122.802 113.552C120.859 114.853 118.23 114.329 116.933 112.384C115.634 110.44 116.157 107.808 118.1 106.51Z" fill="white"/>
<path d="M79.1797 69.3566L117.083 112.618L122.175 108.148L91.9064 58.1819L79.1797 69.3566Z" fill="white"/>
<path d="M98.7016 56.3006L124.125 107.908L118.053 110.907L83.5188 63.796L98.7016 56.3006Z" fill="white"/>
<path d="M118.66 37.3202C124.965 36.066 131.09 40.1622 132.346 46.4735C133.602 52.7847 129.507 58.9157 123.202 60.1733C116.897 61.4276 110.772 57.3313 109.515 51.0201C108.262 44.7089 112.358 38.5744 118.66 37.3202Z" fill="white"/>
<path d="M131.319 101.026C133.612 100.569 135.838 102.06 136.295 104.355C136.751 106.65 135.262 108.878 132.969 109.335C130.676 109.792 128.45 108.301 127.994 106.006C127.54 103.715 129.027 101.483 131.319 101.026Z" fill="white"/>
<path d="M109.568 51.7939L128.047 106.283L134.459 104.102L125.598 46.3467L109.568 51.7939Z" fill="white"/>
<path d="M132.596 47.2107L136.355 104.629L129.597 105.072L115.704 48.3182L132.596 47.2107Z" fill="white"/>
<path d="M158.293 37.3202C164.598 38.5744 168.69 44.7089 167.437 51.0201C166.184 57.3313 160.056 61.4276 153.751 60.1733C147.446 58.9191 143.353 52.7847 144.606 46.4735C145.859 40.1622 151.988 36.066 158.293 37.3202Z" fill="white"/>
<path d="M145.633 101.026C147.925 101.483 149.415 103.711 148.958 106.006C148.502 108.301 146.276 109.792 143.983 109.335C141.69 108.878 140.201 106.65 140.657 104.355C141.11 102.06 143.34 100.572 145.633 101.026Z" fill="white"/>
<path d="M144.36 47.2107L140.597 104.629L147.355 105.072L161.249 48.3182L144.36 47.2107Z" fill="white"/>
<path d="M167.384 51.7939L148.905 106.283L142.494 104.102L151.355 46.3467L167.384 51.7939Z" fill="white"/>
<path d="M194.907 52.5011C200.252 56.077 201.688 63.3089 198.116 68.6594C194.544 74.0099 187.319 75.4476 181.974 71.8751C176.628 68.2992 175.192 61.0673 178.764 55.7168C182.333 50.3662 189.562 48.9286 194.907 52.5011Z" fill="white"/>
<path d="M158.853 106.51C160.796 107.811 161.319 110.44 160.019 112.388C158.719 114.332 156.093 114.856 154.151 113.555C152.208 112.254 151.685 109.626 152.984 107.681C154.281 105.733 156.91 105.209 158.853 106.51Z" fill="white"/>
<path d="M178.251 56.3006L152.828 107.908L158.899 110.907L193.434 63.796L178.251 56.3006Z" fill="white"/>
<path d="M197.773 69.3566L159.869 112.618L154.777 108.148L185.046 58.1819L197.773 69.3566Z" fill="white"/>
<path d="M222.929 80.5513C226.502 85.9018 225.062 93.137 219.717 96.7096C214.372 100.286 207.147 98.8445 203.574 93.4973C200.002 88.1468 201.442 80.9149 206.787 77.339C212.129 73.7631 219.357 75.2008 222.929 80.5513Z" fill="white"/>
<path d="M168.973 116.637C170.273 118.582 169.75 121.214 167.807 122.512C165.864 123.812 163.235 123.289 161.939 121.344C160.639 119.399 161.162 116.767 163.105 115.47C165.048 114.169 167.674 114.693 168.973 116.637Z" fill="white"/>
<path d="M206.091 77.6826L162.872 115.623L167.334 120.717L217.251 90.4218L206.091 77.6826Z" fill="white"/>
<path d="M219.134 97.22L167.577 122.672L164.581 116.591L211.646 82.0224L219.134 97.22Z" fill="white"/>
<path d="M238.092 117.201C239.345 123.512 235.253 129.643 228.948 130.901C222.643 132.155 216.518 128.059 215.262 121.748C214.008 115.436 218.101 109.305 224.406 108.048C230.711 106.79 236.839 110.89 238.092 117.201Z" fill="white"/>
<path d="M174.449 129.874C174.905 132.168 173.416 134.397 171.123 134.854C168.83 135.311 166.604 133.82 166.147 131.525C165.691 129.23 167.181 126.998 169.473 126.544C171.766 126.087 173.992 127.579 174.449 129.874Z" fill="white"/>
<path d="M223.636 108.101L169.2 126.594L171.376 133.016L229.075 124.146L223.636 108.101Z" fill="white"/>
<path d="M228.215 131.148L170.853 134.91L170.41 128.149L227.108 114.239L228.215 131.148Z" fill="white"/>
<path d="M238.092 156.87C236.839 163.181 230.711 167.277 224.406 166.023C218.101 164.769 214.008 158.634 215.262 152.326C216.515 146.015 222.643 141.919 228.948 143.173C235.253 144.427 239.349 150.558 238.092 156.87Z" fill="white"/>
<path d="M174.449 144.197C173.992 146.492 171.766 147.983 169.473 147.526C167.181 147.069 165.691 144.841 166.147 142.546C166.604 140.251 168.83 138.76 171.123 139.217C173.416 139.674 174.905 141.902 174.449 144.197Z" fill="white"/>
<path d="M228.215 142.923L170.853 139.16L170.41 145.922L227.108 159.832L228.215 142.923Z" fill="white"/>
<path d="M223.636 165.969L169.2 147.476L171.376 141.058L229.075 149.925L223.636 165.969Z" fill="white"/>
<path d="M222.929 193.519C219.357 198.87 212.132 200.308 206.787 196.735C201.442 193.162 200.005 185.927 203.574 180.577C207.143 175.226 214.372 173.788 219.717 177.361C225.062 180.937 226.498 188.169 222.929 193.519Z" fill="white"/>
<path d="M168.973 157.433C167.674 159.378 165.048 159.902 163.101 158.601C161.159 157.3 160.635 154.671 161.935 152.727C163.235 150.782 165.861 150.258 167.804 151.559C169.75 152.857 170.27 155.489 168.973 157.433Z" fill="white"/>
<path d="M219.134 176.851L167.577 151.399L164.581 157.48L211.646 192.048L219.134 176.851Z" fill="white"/>
<path d="M206.091 196.388L162.872 158.451L167.334 153.354L217.251 183.649L206.091 196.388Z" fill="white"/>
<path d="M194.907 221.57C189.562 225.145 182.334 223.704 178.764 218.354C175.192 213.003 176.632 205.771 181.974 202.196C187.319 198.62 194.544 200.061 198.116 205.411C201.689 210.762 200.249 217.994 194.907 221.57Z" fill="white"/>
<path d="M158.853 167.561C156.91 168.862 154.28 168.338 152.981 166.393C151.681 164.448 152.204 161.816 154.147 160.519C156.09 159.218 158.719 159.742 160.016 161.686C161.319 163.631 160.795 166.263 158.853 167.561Z" fill="white"/>
<path d="M197.773 204.714L159.869 161.453L154.777 165.923L185.046 215.889L197.773 204.714Z" fill="white"/>
<path d="M178.251 217.77L152.828 166.163L158.899 163.167L193.434 210.278L178.251 217.77Z" fill="white"/>
<path d="M158.293 236.75C151.988 238.005 145.863 233.908 144.606 227.597C143.353 221.286 147.446 215.155 153.751 213.897C160.056 212.643 166.181 216.739 167.437 223.051C168.69 229.362 164.594 235.496 158.293 236.75Z" fill="white"/>
<path d="M145.633 173.045C143.34 173.502 141.114 172.01 140.657 169.716C140.201 167.421 141.69 165.192 143.983 164.735C146.276 164.278 148.505 165.769 148.958 168.064C149.412 170.356 147.925 172.588 145.633 173.045Z" fill="white"/>
<path d="M167.384 222.277L148.905 167.791L142.494 169.969L151.355 227.724L167.384 222.277Z" fill="white"/>
<path d="M144.36 226.86L140.597 169.442L147.355 169.002L161.249 225.753L144.36 226.86Z" fill="white"/>
<path d="M118.659 236.75C112.354 235.496 108.262 229.362 109.515 223.054C110.768 216.743 116.897 212.646 123.202 213.901C129.507 215.155 133.599 221.289 132.346 227.6C131.093 233.912 124.965 238.005 118.659 236.75Z" fill="white"/>
<path d="M131.32 173.045C129.027 172.588 127.537 170.359 127.994 168.064C128.45 165.769 130.677 164.282 132.969 164.735C135.262 165.192 136.752 167.421 136.295 169.716C135.842 172.011 133.612 173.502 131.32 173.045Z" fill="white"/>
<path d="M132.596 226.86L136.355 169.442L129.597 169.002L115.704 225.753L132.596 226.86Z" fill="white"/>
<path d="M109.568 222.277L128.047 167.791L134.459 169.969L125.598 227.724L109.568 222.277Z" fill="white"/>
<path d="M82.0488 221.57C76.7035 217.994 75.2672 210.762 78.8363 205.411C82.4054 200.061 89.6335 198.623 94.9788 202.196C100.324 205.771 101.76 213.003 98.188 218.354C94.6189 223.704 87.3908 225.145 82.0488 221.57Z" fill="white"/>
<path d="M118.1 167.561C116.157 166.26 115.634 163.631 116.933 161.686C118.233 159.742 120.859 159.218 122.802 160.519C124.745 161.82 125.268 164.448 123.968 166.393C122.672 168.338 120.043 168.862 118.1 167.561Z" fill="white"/>
<path d="M98.7016 217.77L124.125 166.163L118.053 163.167L83.5188 210.278L98.7016 217.77Z" fill="white"/>
<path d="M79.1797 204.714L117.083 161.453L122.175 165.923L91.9064 215.889L79.1797 204.714Z" fill="white"/>
<path d="M54.0264 193.519C50.454 188.169 51.8936 180.937 57.2356 177.361C62.5809 173.785 69.809 175.226 73.3781 180.577C76.9505 185.927 75.5109 193.159 70.1656 196.735C64.8236 200.308 57.5955 198.87 54.0264 193.519Z" fill="white"/>
<path d="M107.979 157.433C106.679 155.489 107.202 152.857 109.145 151.559C111.088 150.258 113.717 150.782 115.014 152.727C116.313 154.671 115.79 157.303 113.847 158.601C111.908 159.902 109.278 159.378 107.979 157.433Z" fill="white"/>
<path d="M70.8616 196.388L114.081 158.451L109.618 153.354L59.7012 183.649L70.8616 196.388Z" fill="white"/>
<path d="M57.8186 176.851L109.375 151.399L112.371 157.48L65.3067 192.048L57.8186 176.851Z" fill="white"/>
<path d="M38.8599 156.87C37.6069 150.558 41.6992 144.427 48.0042 143.17C54.3093 141.915 60.4344 146.012 61.6907 152.323C62.9437 158.634 58.8514 164.765 52.5464 166.02C46.238 167.277 40.1129 163.181 38.8599 156.87Z" fill="white"/>
<path d="M102.504 144.197C102.047 141.902 103.537 139.674 105.829 139.217C108.122 138.76 110.348 140.251 110.805 142.546C111.261 144.841 109.772 147.069 107.479 147.526C105.186 147.983 102.96 146.492 102.504 144.197Z" fill="white"/>
<path d="M53.3163 165.973L107.752 147.476L105.576 141.058L47.8777 149.925L53.3163 165.973Z" fill="white"/>
<path d="M48.7375 142.923L106.1 139.16L106.543 145.922L49.8439 159.832L48.7375 142.923Z" fill="white"/>
<path d="M22.2112 148.362L0.65918 150.688L0.891387 152.844L22.4434 150.518L22.2112 148.362Z" fill="white"/>
<path d="M0.0100072 134.884L21.8244 125.06L21.7911 127.402L14.6129 130.717L14.4863 140.064L21.5711 143.54L21.5378 145.958L0 135.411L0.0100072 134.884ZM4.61216 135.221L12.4068 139.047L12.5068 131.628L4.61216 135.221Z" fill="white"/>
<path d="M2.75932 109.662L26.01 104.032L25.5468 106.327L17.8821 108.261L16.0359 117.425L22.361 122.148L21.8844 124.52L2.65601 110.183L2.75932 109.662ZM7.22151 110.843L14.1797 116.04L15.6427 108.768L7.22151 110.843Z" fill="white"/>
<path d="M10.2639 83.4901L11.327 82.7096C11.8535 83.36 12.2834 83.827 12.6133 84.1172C12.9466 84.4074 13.4031 84.7243 13.983 85.0612L14.5228 83.8637L18.2152 85.5349L17.1155 87.9667L14.8061 86.9193C13.653 86.3955 12.7799 85.9085 12.1934 85.4515C11.6102 85.0045 10.9637 84.3474 10.2639 83.4901ZM12.9666 77.5091L14.0296 76.7286C14.5561 77.379 14.986 77.846 15.3193 78.1363C15.6525 78.4265 16.1091 78.7434 16.6889 79.0803L17.2288 77.8827L20.9212 79.5539L19.8215 81.9857L17.5121 80.9383C16.359 80.4146 15.4859 79.9276 14.8961 79.4772C14.3095 79.0336 13.6664 78.3764 12.9666 77.5091Z" fill="white"/>
<path d="M17.7422 69.3432L20.0549 65.6939C21.3446 63.6591 22.301 62.3349 22.9275 61.7177C23.8673 60.7871 24.9603 60.2434 26.21 60.0832C27.4597 59.9231 28.6827 60.22 29.8791 60.9806C30.8755 61.6143 31.602 62.4049 32.0619 63.3556C32.5217 64.3063 32.665 65.337 32.4984 66.4545C32.3318 67.572 31.7653 68.9029 30.7988 70.444L43.4756 69.2532L42.0393 71.5181L29.3625 72.709L28.706 73.7431L37.2039 79.1436L36.0442 80.9749L17.7422 69.3432ZM20.6948 68.6494L26.9165 72.6022L28.9426 69.4633C29.7191 68.2391 30.1757 67.2617 30.3156 66.5279C30.4556 65.794 30.3756 65.1002 30.0724 64.4464C29.7691 63.7926 29.3059 63.2689 28.6727 62.8686C28.0595 62.4783 27.3964 62.2915 26.6832 62.3048C25.9701 62.3182 25.3336 62.5283 24.777 62.932C24.2172 63.3356 23.5407 64.1662 22.7442 65.4204L20.6948 68.6494Z" fill="white"/>
<path d="M38.117 50.086C39.7566 48.2347 41.7827 47.2974 44.1988 47.2674C46.3982 47.244 48.3344 47.9745 50.0006 49.4556C51.6768 50.9433 52.6233 52.828 52.8432 55.1097C53.0631 57.3913 52.3567 59.4495 50.7337 61.2841C49.1008 63.1288 47.1413 64.0761 44.8519 64.1328C42.5625 64.1895 40.5797 63.4724 38.9068 61.988C37.2439 60.5136 36.2941 58.6822 36.0508 56.494C35.7809 54.0789 36.4707 51.9441 38.117 50.086ZM39.6233 51.4337C38.4836 52.7179 37.9804 54.2424 38.1137 56.007C38.2436 57.7716 38.9834 59.2527 40.3264 60.4435C41.1929 61.2141 42.1893 61.7211 43.3123 61.9646C44.4354 62.2081 45.5184 62.1547 46.5582 61.8011C47.6012 61.4476 48.501 60.8405 49.2608 59.9832C50.0206 59.1259 50.5105 58.1585 50.7371 57.0811C50.9637 56.0036 50.887 54.9195 50.5105 53.8354C50.1339 52.748 49.5107 51.8206 48.6443 51.0501C47.298 49.8559 45.7417 49.3022 43.9721 49.3889C42.2026 49.4756 40.753 50.1561 39.6233 51.4337Z" fill="white"/>
<path d="M48.1543 39.7619L49.8005 38.5177L51.4701 40.7293C51.4268 39.4817 51.5668 38.4376 51.8867 37.6037C52.3399 36.4729 53.0264 35.5589 53.9428 34.8651C54.5627 34.3981 55.2425 34.0745 55.9856 33.8944C56.7254 33.7176 57.4253 33.6976 58.0851 33.8343C58.7449 33.9711 59.4847 34.318 60.3145 34.8751C60.1046 33.4574 60.2112 32.1765 60.6411 31.0323C61.0677 29.8881 61.7542 28.9608 62.7006 28.2436C63.5837 27.5765 64.5334 27.2095 65.5465 27.1462C66.5596 27.0828 67.5327 27.3263 68.4658 27.88C69.3989 28.4304 70.4686 29.5079 71.6783 31.109L76.9536 38.1007L75.2707 39.3716L69.9954 32.3799C68.959 31.0056 68.1492 30.1383 67.566 29.7714C66.9828 29.4045 66.3363 29.2443 65.6265 29.2877C64.9167 29.3311 64.2335 29.6013 63.577 30.0983C62.7806 30.7021 62.2274 31.486 61.9241 32.4567C61.6209 33.4274 61.6108 34.4181 61.8974 35.4355C62.184 36.4495 63.0205 37.8772 64.4068 39.7119L68.1925 44.7255L66.5463 45.9697L61.5975 39.415C60.4312 37.8672 59.5414 36.8932 58.9349 36.4829C58.325 36.0759 57.6552 35.8858 56.9254 35.9125C56.1956 35.9392 55.5024 36.2027 54.8426 36.703C54.0828 37.2768 53.5429 38.044 53.2297 39.0047C52.9131 39.9654 52.8898 40.9528 53.1597 41.9702C53.4296 42.9876 54.1661 44.2952 55.3758 45.8963L59.4714 51.3236L57.8252 52.5678L48.1543 39.7619Z" fill="white"/>
<path d="M87.5942 15.3677L94.4591 29.8715L92.6229 30.7421L91.4432 28.2503C91.1133 29.5713 90.5735 30.7021 89.8303 31.6428C89.0872 32.5834 88.1341 33.3273 86.9811 33.8744C84.9316 34.8484 82.8255 34.9351 80.6693 34.1346C78.5132 33.334 76.9303 31.8662 75.9206 29.7347C74.9308 27.6465 74.8175 25.5117 75.5806 23.3334C76.3438 21.1552 77.7534 19.5774 79.8129 18.6C81.0026 18.0363 82.1989 17.7794 83.402 17.8261C84.605 17.8762 85.8113 18.2331 87.0177 18.9036L85.7547 16.2383L87.5942 15.3677ZM80.8193 20.3313C79.7829 20.825 78.9464 21.5321 78.3099 22.4595C77.6734 23.3868 77.3135 24.4342 77.2336 25.6051C77.1536 26.7759 77.3535 27.8734 77.8434 28.9041C78.3266 29.9249 79.0497 30.7788 80.0162 31.4593C80.9826 32.1431 82.029 32.5367 83.1554 32.6368C84.2851 32.7369 85.3548 32.5467 86.3646 32.0697C87.3843 31.586 88.2307 30.8689 88.8972 29.9215C89.5671 28.9742 89.9403 27.9434 90.0169 26.8326C90.0936 25.7218 89.8703 24.6144 89.3504 23.5136C88.5573 21.8357 87.341 20.6949 85.7014 20.0911C84.0585 19.484 82.4322 19.5641 80.8193 20.3313Z" fill="white"/>
<path d="M92.5764 7.56879L94.6626 6.98504L98.1917 19.6008C98.6115 21.0985 98.8981 22.0225 99.0581 22.3761C99.3913 23.17 99.8279 23.7938 100.361 24.2408C100.894 24.6878 101.607 24.988 102.497 25.1448C103.387 25.2982 104.23 25.2649 105.023 25.0414C105.713 24.8479 106.336 24.5143 106.886 24.044C107.436 23.5736 107.853 23.0166 108.132 22.3761C108.412 21.7357 108.549 21.0185 108.539 20.2246C108.532 19.6542 108.299 18.5467 107.839 16.8988L104.31 4.28309L106.396 3.69934L109.922 16.3151C110.445 18.1798 110.685 19.7409 110.642 20.9918C110.598 22.246 110.152 23.4502 109.295 24.6077C108.442 25.7652 107.239 26.5625 105.686 26.9961C104.003 27.4665 102.447 27.4698 101.021 27.0028C99.5946 26.5358 98.4916 25.6952 97.7151 24.4843C97.2319 23.7404 96.692 22.3094 96.0988 20.1879L92.5764 7.56879Z" fill="white"/>
<path d="M123.322 1.20084L135.485 21.819L133.156 22.0458L129.07 15.271L119.776 16.1783L117.107 23.6103L114.701 23.8438L122.795 1.25087L123.322 1.20084ZM123.495 5.81416L120.559 13.9934L127.937 13.2729L123.495 5.81416Z" fill="white"/>
<path d="M140.307 8.16588L139.211 7.45203C139.624 6.72818 139.908 6.15777 140.061 5.7408C140.211 5.32717 140.337 4.78678 140.434 4.12297L139.138 4.04958L139.364 0L142.027 0.150107L141.884 2.68193C141.814 3.94951 141.67 4.93689 141.457 5.65074C141.247 6.36125 140.864 7.20186 140.307 8.16588ZM146.856 8.53281L145.759 7.8223C146.173 7.09844 146.456 6.52804 146.609 6.11107C146.759 5.69744 146.886 5.15705 146.979 4.49324L145.683 4.41985L145.909 0.370267L148.572 0.520374L148.429 3.0522C148.359 4.31978 148.215 5.30716 148.002 6.021C147.795 6.73151 147.412 7.57212 146.856 8.53281Z" fill="white"/>
</svg>
