<svg width="200" height="170" viewBox="0 0 200 170" fill="none" xmlns="http://www.w3.org/2000/svg">
<path d="M88 15.995V8.72815C88 4.30997 84.4185 0.728027 79.9999 0.728027H8.00012C3.58152 0.728027 0 4.30955 0 8.72815V55.8132H200V29.3285C200 24.9103 196.418 21.3284 192 21.3284H93.3335C90.3879 21.3284 88 18.9406 88 15.995Z" fill="#88C293"/>
<path d="M189.333 169.271H10.6668C4.77564 169.271 0 164.496 0 158.605V53.9095H88.2986C90.5484 53.9095 92.6945 52.9622 94.2103 51.2996L104.039 40.5196C105.554 38.8569 107.701 37.9097 109.95 37.9097H200V158.605C200 164.496 195.224 169.271 189.333 169.271Z" fill="#B7E4C7"/>
</svg>
