<svg width="40" height="25" viewBox="0 0 40 25" fill="none" xmlns="http://www.w3.org/2000/svg">
<path d="M24.9902 12.4999C24.9902 19.4049 19.397 24.9999 12.4951 24.9999C5.59318 24.9999 0 19.4037 0 12.4999C0 5.59615 5.59455 0 12.4951 0C19.3957 0 24.9902 5.59615 24.9902 12.4999Z" fill="#26A6D1"/>
<path d="M27.5013 0C24.699 0 22.1192 0.933766 20.0344 2.49256L20.0444 2.49379C20.4545 2.89 20.9068 3.16885 21.2556 3.62497L18.6558 3.66624C18.2484 4.07753 17.8771 4.52501 17.5272 4.99005H22.1117C22.4604 5.40874 22.7828 5.77259 23.0754 6.23502H16.696C16.4623 6.63754 16.2461 7.0513 16.0573 7.48123H23.8016C24.0041 7.90993 24.1853 8.23376 24.3392 8.68755H15.5986C15.4599 9.11885 15.3412 9.56003 15.2511 10.01H24.7053C24.7978 10.4425 24.869 10.8424 24.9178 11.25H15.0636C15.0223 11.6613 15.0011 12.0788 15.0011 12.5001H24.9889C24.9889 12.9426 24.9577 13.3525 24.9127 13.7501H15.0636C15.1061 14.1739 15.1686 14.5901 15.2511 15.0002H24.6902C24.5928 15.4051 24.4802 15.8126 24.339 16.2351H15.5699C15.7023 16.6626 15.8636 17.0776 16.0398 17.4826H23.8016C23.5867 17.9376 23.343 18.3013 23.0743 18.7276H16.6737C16.9262 19.165 17.2049 19.5825 17.5073 19.9825L22.1118 20.0512C21.7193 20.5224 21.2157 20.8062 20.7569 21.2187C20.7818 21.2388 20.0232 21.2163 18.5295 21.1925C20.8018 23.5376 23.9778 25 27.5011 25C34.4043 25 40 19.4037 40 12.5001C40 5.59643 34.4055 0 27.5013 0Z" fill="#E2574C"/>
</svg>
