<svg width="45" height="35" viewBox="0 0 45 35" fill="none" xmlns="http://www.w3.org/2000/svg">
<path d="M22.4984 35C22.4946 35 22.4905 35 22.4864 35C21.1285 34.99 9.12457 34.8721 5.72362 33.8822C3.3468 33.1945 1.47054 31.1773 0.829897 28.6188C-0.0599959 25.023 -0.00334763 18.1001 0.00283218 17.5473C-0.0030043 16.9971 -0.0603392 10.0169 0.82715 6.39155C0.82818 6.38823 0.828867 6.38453 0.829897 6.38121C1.46333 3.85186 3.38181 1.77221 5.71778 1.08269C5.72362 1.08084 5.7298 1.07936 5.73564 1.07751C9.09814 0.126375 21.1258 0.00997701 22.4864 0H22.5107C23.872 0.00997701 35.9079 0.127853 39.2776 1.11927C41.6482 1.8051 43.5231 3.81971 44.1655 6.37492C45.0887 10.0029 45.0032 16.9982 44.9939 17.5887C45.0004 18.1703 45.0543 25.0311 44.1696 28.645C44.1689 28.6487 44.1679 28.6521 44.1672 28.6554C43.5262 31.2139 41.6503 33.2311 39.2707 33.9195C39.2676 33.9206 39.2642 33.9214 39.2611 33.9225C35.8989 34.8733 23.871 34.9897 22.5107 35C22.5066 35 22.5025 35 22.4984 35V35ZM4.22536 7.36191C3.44396 10.5619 3.51777 17.4531 3.51846 17.5225V17.5724C3.49511 19.4836 3.57717 25.0182 4.2257 27.6396C4.54019 28.8948 5.46544 29.8892 6.63892 30.2288C9.14826 30.9593 18.9251 31.1892 22.4984 31.2161C26.0809 31.1892 35.8722 30.9656 38.363 30.2643C39.5327 29.9236 40.4548 28.9325 40.7714 27.6758C41.4206 25.016 41.502 19.5083 41.4783 17.6094C41.4783 17.5894 41.4783 17.5695 41.4786 17.5495C41.5109 15.6155 41.4474 10.0162 40.7745 7.37373C40.7738 7.37114 40.7731 7.36856 40.7727 7.36597C40.4569 6.10518 39.5313 5.1108 38.3578 4.77122C35.8728 4.03994 26.0803 3.81084 22.4984 3.78386C18.9182 3.81084 9.13659 4.03403 6.63823 4.73463C5.48707 5.07829 4.54087 6.10813 4.22536 7.36191V7.36191ZM42.4698 28.1632H42.4708H42.4698ZM18.0177 25.162V9.83768L30.3223 17.5L18.0177 25.162Z" fill="white"/>
</svg>
