<svg width="200" height="180" viewBox="0 0 200 180" fill="none" xmlns="http://www.w3.org/2000/svg">
<path d="M195.648 19.3926H186.698V152.084C186.698 152.084 174.665 156.046 146.237 146.362C127.07 139.833 112.731 147.71 105.423 153.536C103.868 154.775 102.021 156.823 100.12 156.823H100H99.8816C97.9797 156.823 96.1324 154.775 94.5781 153.536C87.2699 147.711 72.9311 139.833 53.7639 146.362C25.3364 156.046 13.3032 152.084 13.3032 152.084V19.3926H4.35314C1.94884 19.3926 0 21.5955 0 24.3132V162.659C0 165.377 1.94923 167.579 4.35314 167.579H82.5535C84.8605 167.579 87.0042 169.039 87.9902 171.396C90.1164 176.481 94.6937 180 100 180C105.306 180 109.884 176.481 112.01 171.396C112.996 169.038 115.14 167.579 117.447 167.579H195.647C198.051 167.579 200 165.377 200 162.659V24.3132C200.001 21.5955 198.052 19.3926 195.648 19.3926Z" fill="#88C293"/>
<path d="M22.2673 162.658V152.872C16.1266 153.013 13.304 152.084 13.304 152.084V19.3926H4.35314C1.94884 19.3926 0 21.5955 0 24.3132V162.659C0 165.377 1.94884 167.579 4.35314 167.579H26.6204C24.2161 167.579 22.2673 165.376 22.2673 162.658Z" fill="#88C293"/>
<path d="M184.016 8.80313C178.217 9.329 165.837 9.13914 146.236 2.46214C117.809 -7.2222 100 14.7869 100 14.7869L96.8984 19.3926V151.939L100 156.644V156.824H100.118C102.021 156.824 103.868 156.14 105.422 154.901C112.731 149.075 127.069 141.198 146.236 147.727C174.664 157.411 187.904 153.45 187.904 153.45V12.8684C187.904 10.4898 186.114 8.61282 184.016 8.80313Z" fill="#B7E4C7"/>
<path d="M111.807 5.34991C104.212 9.58342 100 14.787 100 14.787L96.8984 19.3927V151.939L100 156.644V156.824H100.118C102.021 156.824 103.868 156.14 105.422 154.901C107.161 153.515 109.302 152.014 111.807 150.618V5.34991Z" fill="#88C293"/>
<path d="M15.9844 8.80313C21.7832 9.329 34.1638 9.13914 53.7642 2.46214C82.1917 -7.2222 100 14.7869 100 14.7869V156.824H99.8816C97.9796 156.824 96.1324 156.14 94.5777 154.901C87.2694 149.075 72.9311 141.198 53.7638 147.727C25.336 157.411 12.0957 153.449 12.0957 153.449V12.8684C12.0961 10.4898 13.8867 8.61282 15.9844 8.80313Z" fill="#B7E4C7"/>
</svg>
