<svg width="161" height="200" viewBox="0 0 161 200" fill="none" xmlns="http://www.w3.org/2000/svg">
<path d="M160 200H0V0H106.667L160 53.8462V200Z" fill="#B7E4C7"/>
<path d="M106.668 53.8462H160.001L106.668 0V53.8462Z" fill="#88C293"/>
<path d="M30.4754 169.231H22.8564C20.7526 169.231 19.0469 167.509 19.0469 165.385C19.0469 163.261 20.7526 161.539 22.8564 161.539H30.4754C32.5793 161.539 34.285 163.261 34.285 165.385C34.285 167.509 32.5793 169.231 30.4754 169.231Z" fill="#88C293"/>
<path d="M137.14 169.231H45.7119C43.6081 169.231 41.9023 167.509 41.9023 165.385C41.9023 163.261 43.6081 161.539 45.7119 161.539H137.14C139.244 161.539 140.95 163.261 140.95 165.385C140.95 167.509 139.244 169.231 137.14 169.231Z" fill="#88C293"/>
<path d="M30.4754 146.154H22.8564C20.7526 146.154 19.0469 144.432 19.0469 142.308C19.0469 140.184 20.7526 138.462 22.8564 138.462H30.4754C32.5793 138.462 34.285 140.184 34.285 142.308C34.285 144.432 32.5793 146.154 30.4754 146.154Z" fill="#88C293"/>
<path d="M137.14 146.154H45.7119C43.6081 146.154 41.9023 144.432 41.9023 142.308C41.9023 140.184 43.6081 138.462 45.7119 138.462H137.14C139.244 138.462 140.95 140.184 140.95 142.308C140.95 144.432 139.244 146.154 137.14 146.154Z" fill="#88C293"/>
<path d="M30.4754 123.077H22.8564C20.7526 123.077 19.0469 121.355 19.0469 119.231C19.0469 117.107 20.7526 115.385 22.8564 115.385H30.4754C32.5793 115.385 34.285 117.107 34.285 119.231C34.285 121.355 32.5793 123.077 30.4754 123.077Z" fill="#88C293"/>
<path d="M137.14 123.077H45.7119C43.6081 123.077 41.9023 121.355 41.9023 119.231C41.9023 117.107 43.6081 115.385 45.7119 115.385H137.14C139.244 115.385 140.95 117.107 140.95 119.231C140.95 121.355 139.244 123.077 137.14 123.077Z" fill="#88C293"/>
<path d="M30.4754 100H22.8564C20.7526 100 19.0469 98.2781 19.0469 96.154C19.0469 94.03 20.7526 92.3079 22.8564 92.3079H30.4754C32.5793 92.3079 34.285 94.03 34.285 96.154C34.285 98.2781 32.5793 100 30.4754 100Z" fill="#88C293"/>
<path d="M137.14 100H45.7119C43.6081 100 41.9023 98.2781 41.9023 96.154C41.9023 94.03 43.6081 92.3079 45.7119 92.3079H137.14C139.244 92.3079 140.95 94.03 140.95 96.154C140.95 98.2781 139.244 100 137.14 100Z" fill="#88C293"/>
<path d="M30.4754 76.9242H22.8564C20.7526 76.9242 19.0469 75.2021 19.0469 73.0781C19.0469 70.954 20.7526 69.2319 22.8564 69.2319H30.4754C32.5793 69.2319 34.285 70.954 34.285 73.0781C34.285 75.2021 32.5793 76.9242 30.4754 76.9242Z" fill="#88C293"/>
<path d="M137.14 76.9234H45.7119C43.6081 76.9234 41.9023 75.2013 41.9023 73.0772C41.9023 70.9532 43.6081 69.2311 45.7119 69.2311H137.14C139.244 69.2311 140.95 70.9532 140.95 73.0772C140.95 75.2013 139.244 76.9234 137.14 76.9234Z" fill="#88C293"/>
</svg>
